G04 EAGLE Gerber RS-274X export*
G75*
%MOMM*%
%FSLAX34Y34*%
%LPD*%
%INTop Copper*%
%IPPOS*%
%AMOC8*
5,1,8,0,0,1.08239X$1,22.5*%
G01*
%ADD10C,1.676400*%
%ADD11C,0.855600*%
%ADD12C,0.254000*%
%ADD13C,4.016000*%
%ADD14C,0.254000*%

G36*
X347256Y2425D02*
X347256Y2425D01*
X347307Y2427D01*
X347339Y2445D01*
X347375Y2453D01*
X347414Y2486D01*
X347459Y2510D01*
X347480Y2540D01*
X347508Y2563D01*
X347529Y2610D01*
X347559Y2652D01*
X347567Y2694D01*
X347579Y2722D01*
X347578Y2752D01*
X347586Y2794D01*
X347586Y277206D01*
X347575Y277256D01*
X347573Y277307D01*
X347555Y277339D01*
X347547Y277375D01*
X347514Y277414D01*
X347490Y277459D01*
X347460Y277480D01*
X347437Y277508D01*
X347390Y277529D01*
X347348Y277559D01*
X347306Y277567D01*
X347278Y277579D01*
X347248Y277578D01*
X347206Y277586D01*
X2794Y277586D01*
X2744Y277575D01*
X2693Y277573D01*
X2661Y277555D01*
X2625Y277547D01*
X2586Y277514D01*
X2541Y277490D01*
X2520Y277460D01*
X2492Y277437D01*
X2471Y277390D01*
X2441Y277348D01*
X2433Y277306D01*
X2421Y277278D01*
X2422Y277248D01*
X2414Y277206D01*
X2414Y2794D01*
X2425Y2744D01*
X2427Y2693D01*
X2445Y2661D01*
X2453Y2625D01*
X2486Y2586D01*
X2510Y2541D01*
X2540Y2520D01*
X2563Y2492D01*
X2610Y2471D01*
X2652Y2441D01*
X2694Y2433D01*
X2722Y2421D01*
X2752Y2422D01*
X2794Y2414D01*
X347206Y2414D01*
X347256Y2425D01*
G37*
%LPC*%
G36*
X179132Y86697D02*
X179132Y86697D01*
X177086Y88743D01*
X168725Y97104D01*
X168671Y97138D01*
X168621Y97178D01*
X168598Y97183D01*
X168577Y97196D01*
X168514Y97202D01*
X168452Y97216D01*
X168426Y97210D01*
X168405Y97212D01*
X168370Y97199D01*
X168310Y97187D01*
X168273Y97171D01*
X165762Y97171D01*
X163443Y98132D01*
X161668Y99907D01*
X160707Y102227D01*
X160707Y104737D01*
X161668Y107057D01*
X161925Y107314D01*
X161952Y107358D01*
X161987Y107395D01*
X161997Y107430D01*
X162016Y107461D01*
X162021Y107512D01*
X162036Y107561D01*
X162030Y107597D01*
X162033Y107634D01*
X162015Y107682D01*
X162006Y107732D01*
X161982Y107767D01*
X161971Y107796D01*
X161949Y107817D01*
X161925Y107852D01*
X154736Y115041D01*
X154671Y115081D01*
X154609Y115125D01*
X154597Y115127D01*
X154589Y115133D01*
X154552Y115136D01*
X154467Y115153D01*
X137133Y115153D01*
X137071Y115138D01*
X137008Y115131D01*
X136988Y115119D01*
X136965Y115113D01*
X136915Y115073D01*
X136862Y115039D01*
X136847Y115016D01*
X136831Y115003D01*
X136816Y114968D01*
X136782Y114918D01*
X136767Y114881D01*
X134991Y113105D01*
X132672Y112145D01*
X130161Y112145D01*
X127842Y113105D01*
X126067Y114881D01*
X125106Y117200D01*
X125106Y119711D01*
X126067Y122030D01*
X127842Y123805D01*
X130161Y124766D01*
X132672Y124766D01*
X134991Y123805D01*
X136767Y122030D01*
X136782Y121993D01*
X136819Y121941D01*
X136849Y121885D01*
X136869Y121872D01*
X136883Y121852D01*
X136939Y121822D01*
X136991Y121786D01*
X137018Y121781D01*
X137036Y121771D01*
X137074Y121770D01*
X137133Y121758D01*
X157361Y121758D01*
X170016Y109102D01*
X170018Y109101D01*
X170019Y109100D01*
X170140Y109020D01*
X170592Y108832D01*
X172368Y107057D01*
X173328Y104737D01*
X173328Y102227D01*
X173313Y102190D01*
X173303Y102127D01*
X173296Y102112D01*
X173296Y102105D01*
X173285Y102066D01*
X173289Y102042D01*
X173285Y102019D01*
X173301Y101964D01*
X173302Y101939D01*
X173309Y101927D01*
X173314Y101895D01*
X173329Y101873D01*
X173336Y101853D01*
X173361Y101825D01*
X173374Y101807D01*
X173385Y101786D01*
X173390Y101783D01*
X173395Y101775D01*
X181757Y93414D01*
X181821Y93374D01*
X181883Y93330D01*
X181895Y93328D01*
X181904Y93323D01*
X181941Y93319D01*
X182025Y93303D01*
X227766Y93303D01*
X227779Y93306D01*
X227792Y93304D01*
X227863Y93325D01*
X227935Y93342D01*
X227945Y93350D01*
X227957Y93354D01*
X228011Y93405D01*
X228069Y93452D01*
X228074Y93464D01*
X228083Y93473D01*
X228109Y93543D01*
X228140Y93611D01*
X228139Y93624D01*
X228144Y93636D01*
X228136Y93709D01*
X228133Y93784D01*
X228127Y93795D01*
X228125Y93808D01*
X228086Y93871D01*
X228050Y93936D01*
X228040Y93943D01*
X228033Y93954D01*
X227912Y94034D01*
X226425Y94650D01*
X224650Y96425D01*
X223689Y98745D01*
X223689Y101255D01*
X223705Y101293D01*
X223715Y101355D01*
X223733Y101416D01*
X223729Y101440D01*
X223733Y101463D01*
X223714Y101524D01*
X223703Y101587D01*
X223688Y101609D01*
X223682Y101629D01*
X223656Y101657D01*
X223622Y101707D01*
X179394Y145935D01*
X177348Y147981D01*
X177348Y247178D01*
X177333Y247240D01*
X177327Y247303D01*
X177314Y247323D01*
X177308Y247346D01*
X177268Y247396D01*
X177234Y247449D01*
X177211Y247464D01*
X177198Y247480D01*
X177164Y247496D01*
X177113Y247529D01*
X174751Y248507D01*
X171821Y251437D01*
X170236Y255265D01*
X170236Y259408D01*
X171821Y263236D01*
X174751Y266166D01*
X178579Y267751D01*
X182722Y267751D01*
X186550Y266166D01*
X189480Y263236D01*
X191065Y259408D01*
X191065Y255265D01*
X189480Y251437D01*
X186550Y248507D01*
X184188Y247529D01*
X184136Y247492D01*
X184081Y247462D01*
X184067Y247442D01*
X184047Y247428D01*
X184017Y247372D01*
X183981Y247320D01*
X183976Y247294D01*
X183966Y247275D01*
X183965Y247237D01*
X183953Y247178D01*
X183953Y150875D01*
X183971Y150801D01*
X183984Y150726D01*
X183990Y150716D01*
X183993Y150706D01*
X184016Y150678D01*
X184065Y150606D01*
X228293Y106378D01*
X228347Y106344D01*
X228396Y106304D01*
X228420Y106299D01*
X228440Y106286D01*
X228504Y106280D01*
X228566Y106266D01*
X228592Y106272D01*
X228613Y106270D01*
X228648Y106283D01*
X228707Y106295D01*
X228745Y106311D01*
X231255Y106311D01*
X233575Y105350D01*
X235350Y103575D01*
X236311Y101255D01*
X236311Y98745D01*
X235350Y96425D01*
X233575Y94650D01*
X232088Y94034D01*
X232078Y94027D01*
X232065Y94024D01*
X232008Y93977D01*
X231947Y93933D01*
X231941Y93922D01*
X231931Y93914D01*
X231901Y93846D01*
X231866Y93780D01*
X231866Y93767D01*
X231860Y93755D01*
X231863Y93681D01*
X231861Y93607D01*
X231867Y93595D01*
X231867Y93582D01*
X231902Y93517D01*
X231933Y93450D01*
X231944Y93441D01*
X231950Y93430D01*
X232010Y93388D01*
X232068Y93341D01*
X232081Y93338D01*
X232091Y93330D01*
X232234Y93303D01*
X238474Y93303D01*
X238548Y93320D01*
X238623Y93333D01*
X238633Y93340D01*
X238643Y93342D01*
X238672Y93366D01*
X238743Y93414D01*
X253436Y108107D01*
X253476Y108172D01*
X253520Y108234D01*
X253522Y108246D01*
X253528Y108254D01*
X253531Y108291D01*
X253548Y108376D01*
X253548Y247178D01*
X253533Y247240D01*
X253527Y247303D01*
X253514Y247323D01*
X253508Y247346D01*
X253468Y247396D01*
X253434Y247449D01*
X253411Y247464D01*
X253398Y247480D01*
X253364Y247496D01*
X253313Y247529D01*
X250951Y248507D01*
X248021Y251437D01*
X246436Y255265D01*
X246436Y259408D01*
X248021Y263236D01*
X250951Y266166D01*
X254779Y267751D01*
X258922Y267751D01*
X262750Y266166D01*
X265680Y263236D01*
X267265Y259408D01*
X267265Y255265D01*
X265680Y251437D01*
X262750Y248507D01*
X260388Y247529D01*
X260336Y247492D01*
X260281Y247462D01*
X260267Y247442D01*
X260247Y247428D01*
X260217Y247372D01*
X260181Y247320D01*
X260176Y247294D01*
X260166Y247275D01*
X260165Y247237D01*
X260153Y247178D01*
X260153Y105482D01*
X241368Y86697D01*
X179132Y86697D01*
G37*
%LPD*%
%LPC*%
G36*
X198745Y98689D02*
X198745Y98689D01*
X196425Y99650D01*
X194650Y101425D01*
X193689Y103745D01*
X193689Y106255D01*
X193705Y106293D01*
X193715Y106355D01*
X193733Y106416D01*
X193729Y106440D01*
X193733Y106463D01*
X193714Y106524D01*
X193703Y106587D01*
X193688Y106609D01*
X193682Y106629D01*
X193656Y106657D01*
X193622Y106707D01*
X153994Y146335D01*
X151948Y148381D01*
X151948Y247178D01*
X151933Y247240D01*
X151927Y247303D01*
X151914Y247323D01*
X151908Y247346D01*
X151868Y247396D01*
X151834Y247449D01*
X151811Y247464D01*
X151798Y247480D01*
X151764Y247496D01*
X151713Y247529D01*
X149351Y248507D01*
X146421Y251437D01*
X144836Y255265D01*
X144836Y259408D01*
X146421Y263236D01*
X149351Y266166D01*
X153179Y267751D01*
X157322Y267751D01*
X161150Y266166D01*
X164080Y263236D01*
X165665Y259408D01*
X165665Y255265D01*
X164080Y251437D01*
X161150Y248507D01*
X158788Y247529D01*
X158736Y247492D01*
X158681Y247462D01*
X158667Y247442D01*
X158647Y247428D01*
X158617Y247372D01*
X158581Y247320D01*
X158576Y247294D01*
X158566Y247275D01*
X158565Y247237D01*
X158553Y247178D01*
X158553Y151275D01*
X158571Y151201D01*
X158584Y151126D01*
X158590Y151116D01*
X158593Y151106D01*
X158616Y151078D01*
X158665Y151006D01*
X198293Y111378D01*
X198347Y111344D01*
X198396Y111304D01*
X198420Y111299D01*
X198440Y111286D01*
X198504Y111280D01*
X198566Y111266D01*
X198592Y111272D01*
X198613Y111270D01*
X198648Y111283D01*
X198707Y111295D01*
X198745Y111311D01*
X201255Y111311D01*
X203575Y110350D01*
X205350Y108575D01*
X206311Y106255D01*
X206311Y103745D01*
X205350Y101425D01*
X203575Y99650D01*
X201255Y98689D01*
X198745Y98689D01*
G37*
%LPD*%
%LPC*%
G36*
X198745Y168689D02*
X198745Y168689D01*
X196425Y169650D01*
X194650Y171425D01*
X193689Y173745D01*
X193689Y176255D01*
X194650Y178575D01*
X196425Y180350D01*
X196463Y180365D01*
X196514Y180402D01*
X196570Y180433D01*
X196584Y180452D01*
X196603Y180466D01*
X196633Y180523D01*
X196670Y180574D01*
X196675Y180601D01*
X196685Y180619D01*
X196686Y180657D01*
X196689Y180677D01*
X196690Y180679D01*
X196690Y180680D01*
X196697Y180717D01*
X196697Y211368D01*
X202636Y217307D01*
X202676Y217372D01*
X202720Y217434D01*
X202722Y217446D01*
X202728Y217454D01*
X202731Y217491D01*
X202748Y217576D01*
X202748Y247178D01*
X202733Y247240D01*
X202727Y247303D01*
X202714Y247323D01*
X202708Y247346D01*
X202668Y247396D01*
X202634Y247449D01*
X202611Y247464D01*
X202598Y247480D01*
X202564Y247496D01*
X202513Y247529D01*
X200151Y248507D01*
X197221Y251437D01*
X195636Y255265D01*
X195636Y259408D01*
X197221Y263236D01*
X200151Y266166D01*
X203979Y267751D01*
X208122Y267751D01*
X211950Y266166D01*
X214880Y263236D01*
X216465Y259408D01*
X216465Y255265D01*
X214880Y251437D01*
X211950Y248507D01*
X209588Y247529D01*
X209536Y247492D01*
X209481Y247462D01*
X209467Y247442D01*
X209447Y247428D01*
X209417Y247372D01*
X209381Y247320D01*
X209376Y247294D01*
X209366Y247275D01*
X209365Y247237D01*
X209353Y247178D01*
X209353Y214682D01*
X203414Y208743D01*
X203374Y208679D01*
X203330Y208617D01*
X203328Y208605D01*
X203323Y208596D01*
X203319Y208559D01*
X203303Y208474D01*
X203303Y180717D01*
X203316Y180660D01*
X203316Y180650D01*
X203318Y180647D01*
X203324Y180592D01*
X203337Y180571D01*
X203342Y180548D01*
X203383Y180499D01*
X203417Y180445D01*
X203439Y180430D01*
X203452Y180414D01*
X203487Y180399D01*
X203537Y180365D01*
X203575Y180350D01*
X205350Y178575D01*
X206311Y176255D01*
X206311Y173745D01*
X205350Y171425D01*
X203575Y169650D01*
X201255Y168689D01*
X198745Y168689D01*
G37*
%LPD*%
%LPC*%
G36*
X148797Y101054D02*
X148797Y101054D01*
X146478Y102015D01*
X144703Y103790D01*
X144687Y103828D01*
X144650Y103879D01*
X144620Y103935D01*
X144600Y103949D01*
X144586Y103968D01*
X144530Y103998D01*
X144478Y104035D01*
X144452Y104040D01*
X144433Y104050D01*
X144396Y104051D01*
X144336Y104062D01*
X121055Y104062D01*
X119009Y106108D01*
X115933Y109185D01*
X115879Y109218D01*
X115830Y109258D01*
X115807Y109263D01*
X115786Y109276D01*
X115723Y109282D01*
X115661Y109296D01*
X115635Y109290D01*
X115614Y109292D01*
X115578Y109279D01*
X115519Y109267D01*
X115482Y109251D01*
X112971Y109251D01*
X110652Y110212D01*
X108876Y111987D01*
X107916Y114307D01*
X107916Y116818D01*
X108876Y119137D01*
X110652Y120912D01*
X112971Y121873D01*
X115482Y121873D01*
X117801Y120912D01*
X119576Y119137D01*
X120537Y116818D01*
X120537Y114307D01*
X120522Y114270D01*
X120511Y114207D01*
X120493Y114146D01*
X120497Y114122D01*
X120494Y114099D01*
X120512Y114038D01*
X120523Y113975D01*
X120538Y113953D01*
X120544Y113933D01*
X120570Y113906D01*
X120604Y113855D01*
X123680Y110779D01*
X123745Y110739D01*
X123807Y110696D01*
X123819Y110693D01*
X123827Y110688D01*
X123864Y110684D01*
X123949Y110668D01*
X144336Y110668D01*
X144398Y110682D01*
X144461Y110689D01*
X144481Y110702D01*
X144505Y110707D01*
X144554Y110748D01*
X144607Y110782D01*
X144622Y110804D01*
X144638Y110818D01*
X144654Y110852D01*
X144687Y110903D01*
X144703Y110940D01*
X146478Y112715D01*
X148797Y113676D01*
X151308Y113676D01*
X153627Y112715D01*
X155403Y110940D01*
X156363Y108620D01*
X156363Y106110D01*
X155403Y103790D01*
X153627Y102015D01*
X151308Y101054D01*
X148797Y101054D01*
G37*
%LPD*%
%LPC*%
G36*
X229379Y246922D02*
X229379Y246922D01*
X225551Y248507D01*
X222621Y251437D01*
X221036Y255265D01*
X221036Y259408D01*
X222621Y263236D01*
X225551Y266166D01*
X229379Y267751D01*
X233522Y267751D01*
X237350Y266166D01*
X240280Y263236D01*
X241865Y259408D01*
X241865Y255265D01*
X240280Y251437D01*
X237350Y248507D01*
X233522Y246922D01*
X229379Y246922D01*
G37*
%LPD*%
%LPC*%
G36*
X127779Y246922D02*
X127779Y246922D01*
X123951Y248507D01*
X121021Y251437D01*
X119436Y255265D01*
X119436Y259408D01*
X121021Y263236D01*
X123951Y266166D01*
X127779Y267751D01*
X131922Y267751D01*
X135750Y266166D01*
X138680Y263236D01*
X140265Y259408D01*
X140265Y255265D01*
X138680Y251437D01*
X135750Y248507D01*
X131922Y246922D01*
X127779Y246922D01*
G37*
%LPD*%
%LPC*%
G36*
X128595Y198540D02*
X128595Y198540D01*
X126276Y199500D01*
X124500Y201276D01*
X123540Y203595D01*
X123540Y206106D01*
X124500Y208425D01*
X126276Y210200D01*
X128595Y211161D01*
X131106Y211161D01*
X133425Y210200D01*
X135200Y208425D01*
X136161Y206106D01*
X136161Y203595D01*
X135200Y201276D01*
X133425Y199500D01*
X131106Y198540D01*
X128595Y198540D01*
G37*
%LPD*%
%LPC*%
G36*
X105212Y258098D02*
X105212Y258098D01*
X105212Y268259D01*
X105310Y268259D01*
X107008Y267990D01*
X108643Y267459D01*
X110175Y266679D01*
X111566Y265668D01*
X112782Y264452D01*
X113792Y263061D01*
X114573Y261529D01*
X115104Y259894D01*
X115373Y258196D01*
X115373Y258098D01*
X105212Y258098D01*
G37*
%LPD*%
%LPC*%
G36*
X93528Y258098D02*
X93528Y258098D01*
X93528Y258196D01*
X93797Y259894D01*
X94328Y261529D01*
X95109Y263061D01*
X96119Y264452D01*
X97335Y265668D01*
X98726Y266679D01*
X100258Y267459D01*
X101893Y267990D01*
X103591Y268259D01*
X103689Y268259D01*
X103689Y258098D01*
X93528Y258098D01*
G37*
%LPD*%
%LPC*%
G36*
X105212Y246414D02*
X105212Y246414D01*
X105212Y256575D01*
X115373Y256575D01*
X115373Y256477D01*
X115104Y254779D01*
X114573Y253144D01*
X113792Y251612D01*
X112782Y250221D01*
X111566Y249005D01*
X110175Y247995D01*
X108643Y247214D01*
X107008Y246683D01*
X105310Y246414D01*
X105212Y246414D01*
G37*
%LPD*%
%LPC*%
G36*
X103591Y246414D02*
X103591Y246414D01*
X101893Y246683D01*
X100258Y247214D01*
X98726Y247995D01*
X97335Y249005D01*
X96119Y250221D01*
X95109Y251612D01*
X94328Y253144D01*
X93797Y254779D01*
X93528Y256477D01*
X93528Y256575D01*
X103689Y256575D01*
X103689Y246414D01*
X103591Y246414D01*
G37*
%LPD*%
%LPC*%
G36*
X253339Y27395D02*
X253339Y27395D01*
X250976Y29757D01*
X250976Y33098D01*
X253339Y35460D01*
X256679Y35460D01*
X259042Y33098D01*
X259042Y29757D01*
X256679Y27395D01*
X253339Y27395D01*
G37*
%LPD*%
%LPC*%
G36*
X93339Y27395D02*
X93339Y27395D01*
X90976Y29757D01*
X90976Y33098D01*
X93339Y35460D01*
X96679Y35460D01*
X99042Y33098D01*
X99042Y29757D01*
X96679Y27395D01*
X93339Y27395D01*
G37*
%LPD*%
%LPC*%
G36*
X104450Y257336D02*
X104450Y257336D01*
X104450Y257338D01*
X104451Y257338D01*
X104451Y257336D01*
X104450Y257336D01*
G37*
%LPD*%
D10*
X104450Y257337D03*
X129850Y257337D03*
X155250Y257337D03*
X180650Y257337D03*
X206050Y257337D03*
X231450Y257337D03*
X256850Y257337D03*
D11*
X200000Y105000D03*
D12*
X155250Y149750D01*
X155250Y257337D01*
D11*
X230000Y100000D03*
D12*
X180650Y149350D01*
X180650Y257337D01*
D11*
X98133Y105807D03*
D13*
X25904Y257164D03*
X324982Y257164D03*
D11*
X114226Y115562D03*
D12*
X122423Y107365D01*
X150053Y107365D01*
D11*
X150053Y107365D03*
X131417Y118455D03*
D12*
X155992Y118455D01*
X167018Y107430D02*
X167018Y103482D01*
D11*
X167018Y103482D03*
D12*
X167018Y107430D02*
X155992Y118455D01*
X167018Y103482D02*
X180500Y90000D01*
X240000Y90000D01*
X256850Y106850D01*
X256850Y257337D01*
D11*
X200000Y175000D03*
D12*
X200000Y210000D01*
X206050Y216050D02*
X206050Y257337D01*
X206050Y216050D02*
X200000Y210000D01*
D11*
X129850Y204850D03*
D14*
X0Y0D02*
X350000Y0D01*
X350000Y280000D01*
X0Y280000D01*
X0Y0D01*
M02*
