M48
;GenerationSoftware,Autodesk,EAGLE,9.2.0*%
;CreationDate,2018-10-11T22:12:40Z*%
FMAT,2
ICI,OFF
METRIC,TZ,000.000
T4C0.400
T3C0.500
T2C1.000
T1C3.000
%
G90
M71
T1
X2590Y25716
X32498Y25716
T2
X10445Y25734
X12985Y25734
X15525Y25734
X18065Y25734
X20605Y25734
X23145Y25734
X25685Y25734
T3
X20000Y10500
X23000Y10000
X9813Y10581
X11423Y11556
X15005Y10737
X13142Y11846
X16702Y10348
X20000Y17500
X12985Y20485
T4
X9501Y3143
X25501Y3143
M30