G04 EAGLE Gerber RS-274X export*
G75*
%MOMM*%
%FSLAX34Y34*%
%LPD*%
%INSilkscreen Top*%
%IPPOS*%
%AMOC8*
5,1,8,0,0,1.08239X$1,22.5*%
G01*
%ADD10C,0.076200*%
%ADD11C,0.127000*%
%ADD12C,0.203200*%
%ADD13R,0.508000X0.508000*%
%ADD14C,0.254000*%

G36*
X33398Y23578D02*
X33398Y23578D01*
X33433Y23575D01*
X33514Y23600D01*
X33558Y23609D01*
X33572Y23618D01*
X33592Y23624D01*
X33957Y23807D01*
X34415Y23831D01*
X34433Y23835D01*
X34455Y23835D01*
X34978Y23905D01*
X35486Y23899D01*
X36030Y23854D01*
X36041Y23856D01*
X36054Y23853D01*
X37745Y23794D01*
X37750Y23795D01*
X37756Y23793D01*
X38320Y23786D01*
X38346Y23791D01*
X38382Y23789D01*
X38940Y23852D01*
X38960Y23859D01*
X38988Y23860D01*
X40087Y24092D01*
X40099Y24097D01*
X40116Y24099D01*
X41203Y24398D01*
X41216Y24404D01*
X41233Y24407D01*
X41767Y24591D01*
X41774Y24595D01*
X41785Y24597D01*
X43358Y25208D01*
X43363Y25212D01*
X43371Y25213D01*
X43875Y25426D01*
X43887Y25434D01*
X43904Y25439D01*
X44391Y25682D01*
X44869Y25876D01*
X44878Y25882D01*
X44891Y25886D01*
X45400Y26121D01*
X45418Y26135D01*
X45445Y26145D01*
X45930Y26433D01*
X45936Y26439D01*
X45946Y26443D01*
X46892Y27053D01*
X46919Y27079D01*
X46963Y27108D01*
X47776Y27867D01*
X48198Y28219D01*
X48223Y28250D01*
X48265Y28287D01*
X48605Y28703D01*
X48973Y29112D01*
X48981Y29126D01*
X48996Y29139D01*
X49689Y30029D01*
X49699Y30048D01*
X49716Y30068D01*
X50321Y31016D01*
X50325Y31026D01*
X50333Y31037D01*
X50884Y32000D01*
X50887Y32009D01*
X50894Y32017D01*
X51938Y34017D01*
X51939Y34021D01*
X51943Y34026D01*
X52444Y35035D01*
X52445Y35039D01*
X52448Y35043D01*
X52689Y35552D01*
X52692Y35563D01*
X52699Y35574D01*
X52906Y36070D01*
X53143Y36543D01*
X53147Y36558D01*
X53158Y36574D01*
X53591Y37609D01*
X53592Y37615D01*
X53596Y37621D01*
X53996Y38656D01*
X53999Y38671D01*
X54007Y38687D01*
X54501Y40266D01*
X54504Y40301D01*
X54519Y40349D01*
X54587Y40860D01*
X54875Y41901D01*
X54877Y41936D01*
X54890Y41981D01*
X54947Y42510D01*
X55067Y43026D01*
X55067Y43048D01*
X55075Y43075D01*
X55358Y45279D01*
X55357Y45301D01*
X55362Y45329D01*
X55406Y46960D01*
X55404Y46968D01*
X55406Y46979D01*
X55393Y48107D01*
X55391Y48114D01*
X55392Y48123D01*
X55368Y48686D01*
X55360Y48717D01*
X55359Y48761D01*
X55258Y49274D01*
X55225Y49804D01*
X55221Y49819D01*
X55222Y49839D01*
X55074Y50950D01*
X55069Y50964D01*
X55069Y50983D01*
X54738Y52627D01*
X54731Y52643D01*
X54729Y52664D01*
X54429Y53723D01*
X54324Y54252D01*
X54319Y54264D01*
X54318Y54278D01*
X54181Y54816D01*
X54178Y54822D01*
X54178Y54829D01*
X53876Y55896D01*
X53872Y55903D01*
X53871Y55913D01*
X53362Y57498D01*
X53358Y57506D01*
X53356Y57516D01*
X53164Y58042D01*
X53155Y58056D01*
X53150Y58076D01*
X52930Y58565D01*
X52762Y59072D01*
X52750Y59093D01*
X52742Y59123D01*
X52638Y59352D01*
X52637Y59353D01*
X52637Y59354D01*
X52614Y59384D01*
X52594Y59449D01*
X52081Y60455D01*
X52071Y60468D01*
X52063Y60487D01*
X51477Y61453D01*
X51466Y61465D01*
X51457Y61484D01*
X51129Y61943D01*
X51116Y61955D01*
X51104Y61974D01*
X50741Y62406D01*
X50730Y62414D01*
X50720Y62428D01*
X50331Y62837D01*
X50322Y62843D01*
X50315Y62853D01*
X49908Y63244D01*
X49897Y63250D01*
X49888Y63262D01*
X49460Y63631D01*
X49438Y63643D01*
X49414Y63666D01*
X48951Y63979D01*
X48932Y63987D01*
X48912Y64004D01*
X47925Y64544D01*
X47894Y64554D01*
X47855Y64576D01*
X47332Y64765D01*
X47320Y64766D01*
X47308Y64773D01*
X46244Y65097D01*
X46220Y65099D01*
X46191Y65110D01*
X45636Y65214D01*
X45622Y65214D01*
X45604Y65219D01*
X45044Y65287D01*
X45024Y65285D01*
X44999Y65291D01*
X44435Y65308D01*
X44419Y65305D01*
X44399Y65308D01*
X43835Y65285D01*
X43807Y65278D01*
X43769Y65278D01*
X43524Y65235D01*
X43874Y66975D01*
X44145Y68058D01*
X44145Y68069D01*
X44150Y68082D01*
X44257Y68613D01*
X44409Y69134D01*
X44410Y69146D01*
X44415Y69159D01*
X44673Y70243D01*
X44995Y71310D01*
X44996Y71315D01*
X44998Y71320D01*
X45292Y72372D01*
X45487Y72812D01*
X45782Y73236D01*
X45787Y73249D01*
X45798Y73261D01*
X46091Y73743D01*
X46104Y73778D01*
X46131Y73824D01*
X46332Y74350D01*
X46339Y74390D01*
X46358Y74446D01*
X46409Y74743D01*
X46407Y74794D01*
X46415Y74843D01*
X46408Y74874D01*
X46541Y75075D01*
X46887Y75156D01*
X46927Y75174D01*
X47015Y75205D01*
X47470Y75456D01*
X47492Y75474D01*
X47517Y75485D01*
X47567Y75538D01*
X47622Y75584D01*
X47634Y75610D01*
X47653Y75630D01*
X47692Y75725D01*
X47711Y75762D01*
X47711Y75772D01*
X47716Y75784D01*
X47838Y76332D01*
X47839Y76375D01*
X47849Y76470D01*
X47816Y77033D01*
X47807Y77066D01*
X47804Y77113D01*
X47680Y77664D01*
X47667Y77691D01*
X47660Y77730D01*
X47460Y78258D01*
X47443Y78285D01*
X47428Y78325D01*
X47153Y78817D01*
X47144Y78827D01*
X47140Y78839D01*
X47029Y78963D01*
X46596Y79308D01*
X46565Y79324D01*
X46539Y79347D01*
X46477Y79369D01*
X46419Y79398D01*
X46384Y79401D01*
X46351Y79412D01*
X46265Y79409D01*
X46221Y79413D01*
X46205Y79407D01*
X46185Y79407D01*
X45648Y79297D01*
X45607Y79279D01*
X45528Y79256D01*
X45176Y79083D01*
X44973Y79870D01*
X44961Y79894D01*
X44954Y79928D01*
X44540Y80978D01*
X44526Y81000D01*
X44515Y81033D01*
X44247Y81528D01*
X44223Y81556D01*
X44208Y81589D01*
X44148Y81646D01*
X44119Y81680D01*
X44103Y81688D01*
X44087Y81704D01*
X43716Y81955D01*
X43110Y82799D01*
X43094Y82813D01*
X43081Y82835D01*
X42712Y83259D01*
X42695Y83272D01*
X42683Y83289D01*
X42575Y83364D01*
X42554Y83380D01*
X42550Y83381D01*
X42546Y83383D01*
X42130Y83578D01*
X41837Y83891D01*
X41217Y84779D01*
X41211Y84785D01*
X41206Y84794D01*
X40869Y85240D01*
X40821Y85282D01*
X40780Y85331D01*
X40743Y85351D01*
X40720Y85372D01*
X40683Y85384D01*
X40634Y85411D01*
X40161Y85575D01*
X39724Y85837D01*
X39684Y85852D01*
X39623Y85884D01*
X39224Y86016D01*
X38918Y86331D01*
X38873Y86362D01*
X38834Y86401D01*
X38785Y86423D01*
X38754Y86444D01*
X38722Y86450D01*
X38681Y86468D01*
X38216Y86585D01*
X37801Y86824D01*
X37759Y86838D01*
X37676Y86874D01*
X37146Y87011D01*
X37112Y87013D01*
X37068Y87024D01*
X36590Y87069D01*
X36137Y87199D01*
X35651Y87398D01*
X35610Y87406D01*
X35550Y87428D01*
X34997Y87527D01*
X34952Y87526D01*
X34867Y87533D01*
X34319Y87487D01*
X34297Y87481D01*
X34268Y87481D01*
X33805Y87393D01*
X33332Y87464D01*
X33309Y87463D01*
X33280Y87469D01*
X32716Y87494D01*
X32704Y87492D01*
X32690Y87494D01*
X32125Y87489D01*
X32039Y87470D01*
X31953Y87456D01*
X31941Y87449D01*
X31931Y87447D01*
X31896Y87423D01*
X31809Y87372D01*
X31568Y87170D01*
X31199Y87182D01*
X31165Y87176D01*
X31131Y87179D01*
X31047Y87156D01*
X31003Y87149D01*
X30990Y87140D01*
X30971Y87135D01*
X30581Y86952D01*
X30211Y86859D01*
X29762Y86924D01*
X29755Y86924D01*
X29749Y86926D01*
X29656Y86918D01*
X29564Y86913D01*
X29557Y86910D01*
X29550Y86910D01*
X29469Y86867D01*
X29385Y86826D01*
X29381Y86820D01*
X29374Y86817D01*
X29265Y86692D01*
X29140Y86488D01*
X28874Y86500D01*
X28830Y86493D01*
X28751Y86490D01*
X28254Y86388D01*
X28244Y86383D01*
X28233Y86383D01*
X28081Y86316D01*
X27723Y86082D01*
X27269Y85965D01*
X27194Y85928D01*
X27117Y85896D01*
X27104Y85884D01*
X27091Y85877D01*
X27062Y85844D01*
X26996Y85782D01*
X26683Y85367D01*
X26654Y85306D01*
X26617Y85249D01*
X26612Y85217D01*
X26597Y85187D01*
X26594Y85120D01*
X26583Y85053D01*
X26590Y85017D01*
X26589Y84988D01*
X26603Y84950D01*
X26615Y84890D01*
X26809Y84375D01*
X26832Y84338D01*
X26861Y84274D01*
X27163Y83823D01*
X27393Y83421D01*
X27519Y82950D01*
X27525Y82938D01*
X27527Y82924D01*
X27604Y82777D01*
X27825Y82485D01*
X27791Y82152D01*
X27800Y82060D01*
X27807Y81967D01*
X27810Y81960D01*
X27811Y81954D01*
X27827Y81925D01*
X27878Y81816D01*
X28178Y81383D01*
X28426Y80914D01*
X28442Y80895D01*
X28451Y80871D01*
X28527Y80790D01*
X28551Y80761D01*
X28558Y80757D01*
X28565Y80750D01*
X28900Y80495D01*
X29035Y80147D01*
X29052Y80120D01*
X29062Y80090D01*
X29119Y80016D01*
X29143Y79979D01*
X29154Y79972D01*
X29164Y79958D01*
X29497Y79655D01*
X29761Y79259D01*
X29789Y79231D01*
X29861Y79149D01*
X30285Y78802D01*
X30304Y78793D01*
X30323Y78774D01*
X30702Y78521D01*
X30932Y78164D01*
X30935Y78160D01*
X30936Y78157D01*
X31050Y78035D01*
X31459Y77726D01*
X31806Y77358D01*
X31842Y77332D01*
X31913Y77272D01*
X32858Y76705D01*
X32863Y76703D01*
X32867Y76700D01*
X33023Y76643D01*
X33449Y76563D01*
X33785Y76291D01*
X33824Y76270D01*
X33859Y76241D01*
X33923Y76218D01*
X33961Y76198D01*
X33985Y76196D01*
X34016Y76186D01*
X34541Y76096D01*
X35004Y75956D01*
X35447Y75723D01*
X35465Y75718D01*
X35480Y75707D01*
X35626Y75671D01*
X35638Y75667D01*
X35639Y75667D01*
X35641Y75667D01*
X37301Y75539D01*
X37709Y75460D01*
X37982Y75247D01*
X38039Y75219D01*
X38091Y75183D01*
X38132Y75172D01*
X38160Y75158D01*
X38199Y75156D01*
X38252Y75143D01*
X39840Y75027D01*
X40248Y74818D01*
X40278Y74809D01*
X40305Y74793D01*
X40397Y74776D01*
X40439Y74764D01*
X40453Y74766D01*
X40469Y74763D01*
X41032Y74756D01*
X41053Y74760D01*
X41081Y74758D01*
X41643Y74806D01*
X41666Y74813D01*
X41697Y74813D01*
X42251Y74923D01*
X42266Y74929D01*
X42286Y74931D01*
X42830Y75081D01*
X42840Y75086D01*
X42854Y75088D01*
X43390Y75264D01*
X43415Y75278D01*
X43453Y75290D01*
X43883Y75500D01*
X43671Y75300D01*
X43639Y75299D01*
X43603Y75290D01*
X43492Y75269D01*
X42988Y75087D01*
X42981Y75082D01*
X42974Y75081D01*
X42959Y75070D01*
X42929Y75061D01*
X42472Y74825D01*
X41488Y74471D01*
X41472Y74461D01*
X41448Y74454D01*
X40515Y74023D01*
X40029Y73910D01*
X39988Y73892D01*
X39916Y73870D01*
X39540Y73680D01*
X39536Y73677D01*
X39531Y73675D01*
X39478Y73632D01*
X39449Y73623D01*
X39376Y73612D01*
X38985Y73482D01*
X38973Y73475D01*
X38957Y73471D01*
X38463Y73273D01*
X37981Y73116D01*
X37111Y72872D01*
X36783Y73030D01*
X36772Y73032D01*
X36761Y73040D01*
X35742Y73471D01*
X35248Y73710D01*
X35231Y73714D01*
X35213Y73725D01*
X34694Y73930D01*
X34674Y73933D01*
X34650Y73945D01*
X34140Y74092D01*
X33642Y74290D01*
X33602Y74297D01*
X33544Y74318D01*
X32991Y74414D01*
X32948Y74413D01*
X32905Y74422D01*
X32836Y74410D01*
X32792Y74409D01*
X32771Y74399D01*
X32741Y74394D01*
X32322Y74249D01*
X31865Y74288D01*
X31852Y74286D01*
X31835Y74289D01*
X31270Y74303D01*
X31262Y74302D01*
X31252Y74303D01*
X30122Y74289D01*
X30113Y74287D01*
X30102Y74289D01*
X28974Y74230D01*
X28957Y74226D01*
X28935Y74226D01*
X27816Y74078D01*
X27799Y74073D01*
X27778Y74072D01*
X27226Y73955D01*
X27191Y73940D01*
X27138Y73928D01*
X26628Y73716D01*
X26607Y73702D01*
X26583Y73695D01*
X26494Y73626D01*
X26463Y73605D01*
X26459Y73599D01*
X26451Y73593D01*
X26078Y73187D01*
X26070Y73173D01*
X26055Y73160D01*
X25812Y72854D01*
X25420Y72713D01*
X25409Y72707D01*
X25395Y72703D01*
X25113Y72584D01*
X24900Y72494D01*
X24387Y72341D01*
X24364Y72328D01*
X24330Y72320D01*
X23813Y72093D01*
X23779Y72069D01*
X23722Y72041D01*
X23281Y71724D01*
X23249Y71688D01*
X23209Y71661D01*
X23174Y71608D01*
X23146Y71577D01*
X23137Y71552D01*
X23117Y71522D01*
X22930Y71102D01*
X22606Y70791D01*
X22204Y70456D01*
X21760Y70151D01*
X21741Y70131D01*
X21710Y70111D01*
X21289Y69734D01*
X21280Y69721D01*
X21264Y69709D01*
X20872Y69304D01*
X20861Y69287D01*
X20846Y69275D01*
X20776Y69153D01*
X20765Y69136D01*
X20764Y69133D01*
X20763Y69130D01*
X20583Y68646D01*
X20368Y68248D01*
X19666Y67435D01*
X19655Y67415D01*
X19635Y67394D01*
X19314Y66934D01*
X19278Y66851D01*
X19262Y66817D01*
X19259Y66813D01*
X19259Y66810D01*
X19239Y66769D01*
X19238Y66759D01*
X19235Y66751D01*
X19235Y66712D01*
X19228Y66632D01*
X19226Y66616D01*
X19227Y66612D01*
X19226Y66603D01*
X19266Y66168D01*
X19112Y65803D01*
X18535Y64879D01*
X18521Y64843D01*
X18492Y64794D01*
X18297Y64287D01*
X18292Y64253D01*
X18277Y64222D01*
X18272Y64135D01*
X18264Y64091D01*
X18268Y64076D01*
X18267Y64056D01*
X18312Y63622D01*
X18029Y62628D01*
X18028Y62606D01*
X18018Y62579D01*
X17920Y62025D01*
X17922Y61946D01*
X17917Y61868D01*
X17925Y61845D01*
X17925Y61826D01*
X17944Y61785D01*
X17968Y61709D01*
X18170Y61317D01*
X18206Y60945D01*
X18093Y60481D01*
X18092Y60464D01*
X18085Y60443D01*
X17994Y59887D01*
X17994Y59880D01*
X17992Y59873D01*
X17997Y59707D01*
X18106Y59170D01*
X18146Y59074D01*
X18182Y58988D01*
X18183Y58987D01*
X18183Y58986D01*
X18251Y58920D01*
X18324Y58849D01*
X18325Y58848D01*
X18326Y58848D01*
X18332Y58846D01*
X18333Y58845D01*
X18396Y58394D01*
X18406Y58366D01*
X18410Y58327D01*
X18561Y57797D01*
X18578Y57765D01*
X18586Y57730D01*
X18632Y57661D01*
X18653Y57621D01*
X18666Y57610D01*
X18678Y57591D01*
X18896Y57361D01*
X18923Y56981D01*
X18934Y56939D01*
X18944Y56869D01*
X19102Y56356D01*
X19190Y55910D01*
X19133Y55429D01*
X19135Y55405D01*
X19130Y55373D01*
X19127Y54810D01*
X19134Y54773D01*
X19149Y54662D01*
X19312Y54128D01*
X19332Y54090D01*
X19355Y54027D01*
X19629Y53543D01*
X19658Y53509D01*
X19700Y53447D01*
X19838Y53300D01*
X19316Y52036D01*
X19313Y52021D01*
X19304Y52004D01*
X18774Y50423D01*
X18773Y50414D01*
X18768Y50405D01*
X18455Y49336D01*
X18453Y49308D01*
X18441Y49272D01*
X18358Y48741D01*
X18098Y47688D01*
X18097Y47657D01*
X18086Y47617D01*
X18033Y47088D01*
X17918Y46572D01*
X17917Y46539D01*
X17907Y46495D01*
X17872Y45959D01*
X17783Y45430D01*
X17783Y45407D01*
X17777Y45378D01*
X17741Y44815D01*
X17742Y44807D01*
X17740Y44797D01*
X17710Y43669D01*
X17711Y43666D01*
X17710Y43662D01*
X17697Y42533D01*
X17697Y42529D01*
X17697Y42526D01*
X17698Y42524D01*
X17697Y42518D01*
X17718Y41390D01*
X17721Y41380D01*
X17719Y41368D01*
X17755Y40805D01*
X17757Y40797D01*
X17756Y40788D01*
X17865Y39665D01*
X17870Y39649D01*
X17871Y39628D01*
X18064Y38517D01*
X18068Y38508D01*
X18069Y38495D01*
X18183Y37980D01*
X18243Y37448D01*
X18254Y37415D01*
X18259Y37367D01*
X18564Y36293D01*
X18569Y36284D01*
X18571Y36270D01*
X18751Y35736D01*
X18753Y35732D01*
X18754Y35726D01*
X18946Y35196D01*
X18954Y35181D01*
X18960Y35161D01*
X19189Y34649D01*
X19194Y34642D01*
X19197Y34632D01*
X19695Y33625D01*
X19702Y33617D01*
X19706Y33605D01*
X20251Y32620D01*
X20259Y32611D01*
X20264Y32597D01*
X20860Y31643D01*
X20869Y31634D01*
X20876Y31619D01*
X21854Y30238D01*
X21862Y30230D01*
X21869Y30217D01*
X22918Y28889D01*
X22929Y28879D01*
X22940Y28863D01*
X24076Y27609D01*
X24083Y27604D01*
X24089Y27595D01*
X24484Y27192D01*
X24502Y27180D01*
X24519Y27160D01*
X24940Y26806D01*
X25345Y26431D01*
X25360Y26421D01*
X25376Y26404D01*
X25817Y26059D01*
X25832Y26051D01*
X25848Y26036D01*
X26316Y25725D01*
X26335Y25717D01*
X26356Y25700D01*
X27310Y25186D01*
X27335Y25178D01*
X27365Y25160D01*
X27872Y24963D01*
X27875Y24962D01*
X27879Y24960D01*
X28909Y24575D01*
X28929Y24572D01*
X28954Y24561D01*
X31093Y23985D01*
X31121Y23983D01*
X31157Y23972D01*
X31697Y23900D01*
X32173Y23806D01*
X32606Y23618D01*
X32622Y23615D01*
X32636Y23606D01*
X32800Y23577D01*
X33363Y23571D01*
X33398Y23578D01*
G37*
G36*
X45678Y11734D02*
X45678Y11734D01*
X45749Y11740D01*
X45775Y11754D01*
X45803Y11760D01*
X45862Y11800D01*
X45925Y11833D01*
X45943Y11856D01*
X45967Y11872D01*
X46005Y11932D01*
X46050Y11988D01*
X46060Y12019D01*
X46074Y12040D01*
X46081Y12082D01*
X46102Y12146D01*
X46175Y12634D01*
X46173Y12668D01*
X46180Y12713D01*
X46145Y16099D01*
X46151Y17722D01*
X46229Y17993D01*
X46529Y18178D01*
X46992Y18417D01*
X47462Y18604D01*
X47919Y18716D01*
X48325Y18718D01*
X48631Y18594D01*
X48831Y18342D01*
X48931Y17955D01*
X48955Y17195D01*
X48964Y16889D01*
X48967Y12374D01*
X48970Y12357D01*
X48968Y12339D01*
X48990Y12260D01*
X49007Y12180D01*
X49017Y12165D01*
X49021Y12148D01*
X49073Y12083D01*
X49119Y12016D01*
X49134Y12006D01*
X49145Y11992D01*
X49279Y11914D01*
X49287Y11909D01*
X49288Y11909D01*
X49289Y11908D01*
X49699Y11753D01*
X49706Y11751D01*
X49712Y11748D01*
X49876Y11720D01*
X50441Y11720D01*
X50473Y11727D01*
X50506Y11724D01*
X50570Y11746D01*
X50636Y11760D01*
X50663Y11778D01*
X50694Y11789D01*
X50763Y11847D01*
X50800Y11872D01*
X50808Y11884D01*
X50821Y11896D01*
X51081Y12201D01*
X51125Y12282D01*
X51172Y12361D01*
X51174Y12369D01*
X51177Y12375D01*
X51181Y12411D01*
X51200Y12525D01*
X51200Y18003D01*
X51326Y18163D01*
X51715Y18356D01*
X52195Y18551D01*
X52670Y18686D01*
X53119Y18731D01*
X53494Y18667D01*
X53753Y18482D01*
X53902Y18177D01*
X53941Y17722D01*
X53955Y17177D01*
X53983Y12660D01*
X53992Y12616D01*
X54000Y12532D01*
X54121Y12088D01*
X54140Y12050D01*
X54150Y12009D01*
X54185Y11963D01*
X54211Y11911D01*
X54243Y11883D01*
X54268Y11849D01*
X54318Y11820D01*
X54362Y11782D01*
X54403Y11769D01*
X54439Y11748D01*
X54510Y11736D01*
X54552Y11723D01*
X54575Y11725D01*
X54603Y11720D01*
X55168Y11720D01*
X55189Y11724D01*
X55216Y11722D01*
X55732Y11772D01*
X55812Y11797D01*
X55894Y11816D01*
X55907Y11826D01*
X55922Y11830D01*
X55986Y11884D01*
X56054Y11934D01*
X56062Y11948D01*
X56074Y11958D01*
X56113Y12033D01*
X56156Y12105D01*
X56158Y12122D01*
X56165Y12135D01*
X56168Y12179D01*
X56183Y12270D01*
X56178Y16791D01*
X56177Y16795D01*
X56177Y16799D01*
X56147Y18494D01*
X56138Y18531D01*
X56137Y18585D01*
X56024Y19136D01*
X56010Y19169D01*
X55972Y19278D01*
X55699Y19770D01*
X55671Y19803D01*
X55613Y19883D01*
X55213Y20279D01*
X55178Y20302D01*
X55098Y20364D01*
X54602Y20631D01*
X54559Y20644D01*
X54486Y20676D01*
X53939Y20812D01*
X53897Y20814D01*
X53834Y20826D01*
X53270Y20844D01*
X53233Y20837D01*
X53178Y20838D01*
X52620Y20751D01*
X52591Y20740D01*
X52549Y20734D01*
X52010Y20566D01*
X51993Y20557D01*
X51969Y20552D01*
X51446Y20338D01*
X51429Y20326D01*
X51404Y20318D01*
X50623Y19910D01*
X50529Y19954D01*
X50185Y20288D01*
X50148Y20313D01*
X50083Y20365D01*
X49593Y20643D01*
X49553Y20656D01*
X49548Y20657D01*
X49512Y20679D01*
X49486Y20683D01*
X49459Y20695D01*
X48909Y20821D01*
X48865Y20822D01*
X48773Y20834D01*
X47829Y20788D01*
X47786Y20777D01*
X47703Y20765D01*
X47164Y20595D01*
X47145Y20584D01*
X47118Y20578D01*
X46599Y20356D01*
X46587Y20347D01*
X46570Y20342D01*
X46086Y20097D01*
X45994Y20336D01*
X45985Y20350D01*
X45981Y20367D01*
X45932Y20434D01*
X45887Y20504D01*
X45873Y20513D01*
X45863Y20527D01*
X45792Y20569D01*
X45723Y20616D01*
X45706Y20620D01*
X45692Y20628D01*
X45530Y20656D01*
X45528Y20656D01*
X44963Y20656D01*
X44941Y20652D01*
X44912Y20653D01*
X44399Y20601D01*
X44320Y20576D01*
X44240Y20557D01*
X44226Y20547D01*
X44209Y20542D01*
X44146Y20488D01*
X44080Y20439D01*
X44071Y20424D01*
X44058Y20413D01*
X44020Y20339D01*
X43978Y20268D01*
X43975Y20249D01*
X43968Y20235D01*
X43965Y20191D01*
X43951Y20104D01*
X43956Y12762D01*
X43958Y12753D01*
X43957Y12742D01*
X43979Y12199D01*
X44003Y12102D01*
X44025Y12009D01*
X44026Y12008D01*
X44026Y12006D01*
X44086Y11926D01*
X44143Y11849D01*
X44144Y11848D01*
X44145Y11847D01*
X44232Y11796D01*
X44314Y11748D01*
X44316Y11747D01*
X44317Y11747D01*
X44333Y11745D01*
X44478Y11720D01*
X45608Y11720D01*
X45678Y11734D01*
G37*
G36*
X18307Y11730D02*
X18307Y11730D01*
X18359Y11731D01*
X18413Y11752D01*
X18451Y11760D01*
X18476Y11777D01*
X18514Y11792D01*
X18867Y12004D01*
X18921Y12054D01*
X18980Y12098D01*
X18994Y12121D01*
X19013Y12139D01*
X19044Y12206D01*
X19081Y12269D01*
X19086Y12299D01*
X19096Y12320D01*
X19097Y12363D01*
X19108Y12433D01*
X19101Y15036D01*
X19106Y15040D01*
X20061Y15106D01*
X20076Y15110D01*
X20096Y15110D01*
X20656Y15187D01*
X20672Y15193D01*
X20694Y15194D01*
X21245Y15315D01*
X21267Y15324D01*
X21297Y15329D01*
X21833Y15508D01*
X21857Y15522D01*
X21893Y15532D01*
X22401Y15779D01*
X22427Y15799D01*
X22467Y15818D01*
X22931Y16140D01*
X22956Y16166D01*
X22997Y16195D01*
X23399Y16592D01*
X23418Y16621D01*
X23452Y16654D01*
X23784Y17112D01*
X23797Y17142D01*
X23824Y17177D01*
X24081Y17680D01*
X24091Y17716D01*
X24115Y17766D01*
X24275Y18306D01*
X24282Y18386D01*
X24295Y18465D01*
X24294Y18470D01*
X24296Y18473D01*
X24304Y18506D01*
X24315Y18529D01*
X24318Y18571D01*
X24332Y18636D01*
X24360Y19201D01*
X24356Y19226D01*
X24360Y19260D01*
X24321Y19824D01*
X24312Y19857D01*
X24309Y19904D01*
X24179Y20455D01*
X24164Y20487D01*
X24153Y20535D01*
X23932Y21056D01*
X23910Y21088D01*
X23886Y21140D01*
X23570Y21608D01*
X23542Y21636D01*
X23507Y21684D01*
X23106Y22082D01*
X23075Y22102D01*
X23038Y22138D01*
X22573Y22459D01*
X22542Y22472D01*
X22503Y22500D01*
X21991Y22741D01*
X21967Y22747D01*
X21938Y22763D01*
X21402Y22944D01*
X21376Y22947D01*
X21345Y22960D01*
X20791Y23077D01*
X20770Y23077D01*
X20745Y23084D01*
X20182Y23148D01*
X20171Y23147D01*
X20158Y23150D01*
X19593Y23186D01*
X19584Y23185D01*
X19573Y23187D01*
X17309Y23241D01*
X17295Y23239D01*
X17281Y23241D01*
X17197Y23221D01*
X17113Y23206D01*
X17101Y23198D01*
X17087Y23195D01*
X17018Y23144D01*
X16947Y23098D01*
X16939Y23086D01*
X16927Y23077D01*
X16884Y23004D01*
X16836Y22933D01*
X16833Y22918D01*
X16826Y22906D01*
X16798Y22742D01*
X16798Y18779D01*
X16812Y18709D01*
X16818Y18639D01*
X16832Y18609D01*
X16837Y18584D01*
X16862Y18549D01*
X16891Y18489D01*
X16918Y18451D01*
X16828Y18203D01*
X16827Y18200D01*
X16826Y18197D01*
X16798Y18033D01*
X16792Y12386D01*
X16794Y12375D01*
X16793Y12365D01*
X16814Y12278D01*
X16832Y12191D01*
X16838Y12182D01*
X16840Y12172D01*
X16894Y12100D01*
X16944Y12027D01*
X16953Y12021D01*
X16959Y12013D01*
X17100Y11924D01*
X17499Y11758D01*
X17514Y11755D01*
X17527Y11748D01*
X17691Y11720D01*
X18256Y11720D01*
X18307Y11730D01*
G37*
G36*
X36024Y11529D02*
X36024Y11529D01*
X36072Y11529D01*
X36630Y11618D01*
X36659Y11629D01*
X36700Y11634D01*
X37239Y11802D01*
X37256Y11812D01*
X37281Y11817D01*
X37803Y12032D01*
X37817Y12042D01*
X37837Y12048D01*
X38342Y12301D01*
X38345Y12303D01*
X38412Y12077D01*
X38429Y12045D01*
X38438Y12009D01*
X38476Y11958D01*
X38506Y11902D01*
X38534Y11879D01*
X38556Y11849D01*
X38610Y11817D01*
X38660Y11777D01*
X38695Y11766D01*
X38727Y11748D01*
X38808Y11734D01*
X38851Y11722D01*
X38869Y11724D01*
X38891Y11720D01*
X39456Y11720D01*
X39490Y11727D01*
X39537Y11727D01*
X40022Y11807D01*
X40085Y11831D01*
X40151Y11846D01*
X40177Y11866D01*
X40208Y11878D01*
X40257Y11924D01*
X40311Y11964D01*
X40328Y11993D01*
X40352Y12015D01*
X40378Y12077D01*
X40413Y12135D01*
X40419Y12172D01*
X40430Y12198D01*
X40430Y12239D01*
X40440Y12299D01*
X40440Y19647D01*
X40436Y19670D01*
X40437Y19700D01*
X40382Y20210D01*
X40358Y20288D01*
X40339Y20367D01*
X40328Y20382D01*
X40322Y20400D01*
X40269Y20462D01*
X40221Y20527D01*
X40205Y20537D01*
X40193Y20551D01*
X40120Y20587D01*
X40050Y20628D01*
X40029Y20632D01*
X40014Y20639D01*
X39970Y20642D01*
X39886Y20656D01*
X38756Y20656D01*
X38751Y20655D01*
X38746Y20656D01*
X38654Y20635D01*
X38561Y20616D01*
X38557Y20614D01*
X38552Y20613D01*
X38475Y20558D01*
X38397Y20504D01*
X38394Y20500D01*
X38390Y20497D01*
X38341Y20417D01*
X38290Y20336D01*
X38289Y20332D01*
X38287Y20328D01*
X38256Y20164D01*
X38240Y19055D01*
X38241Y19050D01*
X38240Y19044D01*
X38278Y14609D01*
X38205Y14397D01*
X37894Y14219D01*
X37415Y13991D01*
X36929Y13794D01*
X36456Y13658D01*
X36006Y13615D01*
X35641Y13676D01*
X35410Y13856D01*
X35280Y14187D01*
X35227Y14663D01*
X35176Y16331D01*
X35171Y18014D01*
X35204Y19703D01*
X35196Y19747D01*
X35188Y19838D01*
X35072Y20282D01*
X35053Y20323D01*
X35042Y20367D01*
X35009Y20411D01*
X34985Y20461D01*
X34951Y20491D01*
X34924Y20527D01*
X34877Y20555D01*
X34835Y20591D01*
X34792Y20605D01*
X34753Y20628D01*
X34687Y20640D01*
X34646Y20653D01*
X34621Y20651D01*
X34589Y20656D01*
X33459Y20656D01*
X33451Y20654D01*
X33442Y20656D01*
X33354Y20635D01*
X33264Y20616D01*
X33257Y20612D01*
X33249Y20610D01*
X33176Y20556D01*
X33100Y20504D01*
X33095Y20497D01*
X33089Y20492D01*
X33042Y20414D01*
X32993Y20336D01*
X32992Y20328D01*
X32987Y20321D01*
X32960Y20157D01*
X32960Y20021D01*
X32960Y20020D01*
X32965Y15499D01*
X32966Y15495D01*
X32965Y15491D01*
X32985Y14360D01*
X32987Y14349D01*
X32986Y14335D01*
X33025Y13771D01*
X33035Y13734D01*
X33040Y13678D01*
X33184Y13134D01*
X33202Y13097D01*
X33240Y13002D01*
X33533Y12521D01*
X33562Y12490D01*
X33624Y12411D01*
X34042Y12032D01*
X34080Y12010D01*
X34151Y11957D01*
X34653Y11702D01*
X34696Y11690D01*
X34772Y11659D01*
X35322Y11538D01*
X35364Y11537D01*
X35426Y11526D01*
X35991Y11523D01*
X36024Y11529D01*
G37*
%LPC*%
G36*
X40492Y64996D02*
X40492Y64996D01*
X39516Y65496D01*
X39494Y65502D01*
X39467Y65518D01*
X38949Y65717D01*
X38920Y65722D01*
X38884Y65737D01*
X38336Y65866D01*
X38296Y65867D01*
X38237Y65879D01*
X37673Y65896D01*
X37658Y65893D01*
X37638Y65896D01*
X37073Y65873D01*
X37062Y65871D01*
X37048Y65872D01*
X36485Y65820D01*
X36472Y65816D01*
X36454Y65816D01*
X35896Y65730D01*
X35882Y65724D01*
X35864Y65723D01*
X35314Y65601D01*
X35310Y65599D01*
X35305Y65599D01*
X34325Y65362D01*
X34419Y65450D01*
X34426Y65460D01*
X34438Y65468D01*
X34830Y65875D01*
X34836Y65883D01*
X34846Y65891D01*
X35593Y66739D01*
X35600Y66751D01*
X35612Y66762D01*
X35959Y67208D01*
X35964Y67217D01*
X35973Y67226D01*
X36299Y67687D01*
X36306Y67704D01*
X36320Y67720D01*
X36897Y68689D01*
X36904Y68709D01*
X36920Y68731D01*
X37403Y69752D01*
X37405Y69761D01*
X37412Y69772D01*
X37631Y70292D01*
X37636Y70314D01*
X37648Y70338D01*
X37802Y70836D01*
X38003Y71230D01*
X38285Y71517D01*
X39204Y71976D01*
X39703Y72182D01*
X39713Y72188D01*
X39726Y72191D01*
X40109Y72372D01*
X40119Y72379D01*
X40130Y72382D01*
X40178Y72422D01*
X40213Y72432D01*
X40288Y72444D01*
X40695Y72582D01*
X40713Y72592D01*
X40740Y72599D01*
X41742Y73051D01*
X43175Y73548D01*
X42839Y72663D01*
X42837Y72649D01*
X42828Y72633D01*
X42333Y71022D01*
X42331Y71008D01*
X42324Y70992D01*
X42193Y70449D01*
X42193Y70437D01*
X42187Y70422D01*
X42088Y69889D01*
X41832Y68869D01*
X41653Y68366D01*
X41649Y68335D01*
X41634Y68296D01*
X41531Y67778D01*
X41358Y67292D01*
X41353Y67255D01*
X41336Y67203D01*
X40983Y64993D01*
X40952Y64846D01*
X40907Y64845D01*
X40492Y64996D01*
G37*
%LPD*%
G36*
X28692Y11738D02*
X28692Y11738D01*
X28783Y11754D01*
X28790Y11758D01*
X28796Y11760D01*
X28825Y11779D01*
X28926Y11840D01*
X29230Y12101D01*
X29250Y12126D01*
X29276Y12145D01*
X29311Y12203D01*
X29353Y12257D01*
X29361Y12288D01*
X29377Y12316D01*
X29393Y12407D01*
X29404Y12449D01*
X29402Y12463D01*
X29405Y12480D01*
X29405Y23218D01*
X29402Y23232D01*
X29404Y23249D01*
X29371Y23781D01*
X29347Y23871D01*
X29326Y23961D01*
X29322Y23966D01*
X29320Y23973D01*
X29262Y24047D01*
X29208Y24121D01*
X29202Y24124D01*
X29197Y24130D01*
X29116Y24175D01*
X29037Y24222D01*
X29029Y24224D01*
X29024Y24227D01*
X28988Y24230D01*
X28873Y24250D01*
X27699Y24250D01*
X27690Y24248D01*
X27682Y24250D01*
X27594Y24229D01*
X27504Y24210D01*
X27497Y24206D01*
X27489Y24204D01*
X27415Y24150D01*
X27340Y24098D01*
X27335Y24091D01*
X27328Y24086D01*
X27282Y24007D01*
X27233Y23930D01*
X27231Y23922D01*
X27227Y23915D01*
X27199Y23751D01*
X27199Y12447D01*
X27211Y12388D01*
X27214Y12328D01*
X27231Y12292D01*
X27239Y12252D01*
X27273Y12202D01*
X27299Y12148D01*
X27332Y12116D01*
X27351Y12088D01*
X27382Y12069D01*
X27419Y12033D01*
X27757Y11806D01*
X27816Y11781D01*
X27872Y11748D01*
X27912Y11741D01*
X27940Y11729D01*
X27979Y11730D01*
X28036Y11720D01*
X28601Y11720D01*
X28692Y11738D01*
G37*
%LPC*%
G36*
X19071Y17028D02*
X19071Y17028D01*
X19059Y18434D01*
X19058Y18436D01*
X19059Y18438D01*
X19051Y18474D01*
X19054Y18483D01*
X19052Y18512D01*
X19059Y18550D01*
X19073Y20240D01*
X19107Y21201D01*
X19919Y21151D01*
X20416Y21067D01*
X20867Y20922D01*
X21263Y20689D01*
X21599Y20386D01*
X21841Y20025D01*
X21978Y19611D01*
X22016Y19147D01*
X21974Y18624D01*
X21980Y18576D01*
X21975Y18528D01*
X21992Y18478D01*
X21993Y18467D01*
X21985Y18458D01*
X21964Y18424D01*
X21924Y18380D01*
X21654Y17952D01*
X21331Y17632D01*
X20945Y17385D01*
X20501Y17219D01*
X20006Y17115D01*
X19481Y17049D01*
X19079Y17024D01*
X19071Y17028D01*
G37*
%LPD*%
%LPC*%
G36*
X21587Y56620D02*
X21587Y56620D01*
X21764Y57126D01*
X22396Y58677D01*
X22428Y58817D01*
X22623Y58904D01*
X22654Y58925D01*
X22702Y58947D01*
X23150Y59252D01*
X24118Y59789D01*
X24127Y59797D01*
X24140Y59803D01*
X24607Y60095D01*
X25058Y60345D01*
X25090Y60359D01*
X24990Y60275D01*
X24982Y60264D01*
X24967Y60255D01*
X24557Y59866D01*
X24545Y59849D01*
X24525Y59832D01*
X24311Y59588D01*
X24182Y59494D01*
X23392Y58690D01*
X23386Y58681D01*
X23376Y58673D01*
X22624Y57832D01*
X22614Y57815D01*
X22596Y57798D01*
X21921Y56894D01*
X21918Y56888D01*
X21912Y56882D01*
X21588Y56420D01*
X21586Y56416D01*
X21582Y56412D01*
X21485Y56267D01*
X21587Y56620D01*
G37*
%LPD*%
D10*
X96173Y240744D02*
X94944Y241973D01*
X92487Y241973D01*
X91258Y240744D01*
X91258Y235829D01*
X92487Y234600D01*
X94944Y234600D01*
X96173Y235829D01*
X96173Y238287D01*
X93715Y238287D01*
X98742Y241973D02*
X98742Y234600D01*
X103657Y234600D02*
X98742Y241973D01*
X103657Y241973D02*
X103657Y234600D01*
X106226Y234600D02*
X106226Y241973D01*
X106226Y234600D02*
X109912Y234600D01*
X111141Y235829D01*
X111141Y240744D01*
X109912Y241973D01*
X106226Y241973D01*
X120674Y240983D02*
X121903Y242211D01*
X124360Y242211D01*
X125589Y240983D01*
X125589Y239754D01*
X124360Y238525D01*
X123132Y238525D01*
X124360Y238525D02*
X125589Y237296D01*
X125589Y236068D01*
X124360Y234839D01*
X121903Y234839D01*
X120674Y236068D01*
X128158Y237296D02*
X128158Y242211D01*
X128158Y237296D02*
X130616Y234839D01*
X133073Y237296D01*
X133073Y242211D01*
X135643Y240983D02*
X136871Y242211D01*
X139329Y242211D01*
X140557Y240983D01*
X140557Y239754D01*
X139329Y238525D01*
X138100Y238525D01*
X139329Y238525D02*
X140557Y237296D01*
X140557Y236068D01*
X139329Y234839D01*
X136871Y234839D01*
X135643Y236068D01*
X253131Y242396D02*
X254359Y241167D01*
X253131Y242396D02*
X250673Y242396D01*
X249444Y241167D01*
X249444Y236253D01*
X250673Y235024D01*
X253131Y235024D01*
X254359Y236253D01*
X260615Y242396D02*
X261843Y241167D01*
X260615Y242396D02*
X258157Y242396D01*
X256929Y241167D01*
X256929Y239939D01*
X258157Y238710D01*
X260615Y238710D01*
X261843Y237481D01*
X261843Y236253D01*
X260615Y235024D01*
X258157Y235024D01*
X256929Y236253D01*
X195819Y234805D02*
X195819Y242177D01*
X199505Y242177D01*
X200733Y240949D01*
X200733Y238491D01*
X199505Y237262D01*
X195819Y237262D01*
X198276Y237262D02*
X200733Y234805D01*
X206989Y242177D02*
X208218Y240949D01*
X206989Y242177D02*
X204531Y242177D01*
X203303Y240949D01*
X203303Y239720D01*
X204531Y238491D01*
X206989Y238491D01*
X208218Y237262D01*
X208218Y236034D01*
X206989Y234805D01*
X204531Y234805D01*
X203303Y236034D01*
X213244Y234805D02*
X213244Y242177D01*
X210787Y242177D02*
X215702Y242177D01*
X173893Y242169D02*
X173893Y234797D01*
X177579Y234797D01*
X178808Y236025D01*
X178808Y240940D01*
X177579Y242169D01*
X173893Y242169D01*
X181377Y239711D02*
X183835Y242169D01*
X183835Y234797D01*
X186292Y234797D02*
X181377Y234797D01*
X148409Y234797D02*
X148409Y242169D01*
X148409Y234797D02*
X152095Y234797D01*
X153324Y236025D01*
X153324Y240940D01*
X152095Y242169D01*
X148409Y242169D01*
X155893Y240940D02*
X155893Y236025D01*
X155893Y240940D02*
X157122Y242169D01*
X159579Y242169D01*
X160808Y240940D01*
X160808Y236025D01*
X159579Y234797D01*
X157122Y234797D01*
X155893Y236025D01*
X160808Y240940D01*
X223776Y242100D02*
X223776Y234728D01*
X227463Y234728D01*
X228691Y235957D01*
X228691Y240871D01*
X227463Y242100D01*
X223776Y242100D01*
X234947Y242100D02*
X236175Y240871D01*
X234947Y242100D02*
X232489Y242100D01*
X231261Y240871D01*
X231261Y235957D01*
X232489Y234728D01*
X234947Y234728D01*
X236175Y235957D01*
D11*
X347509Y230927D02*
X2509Y230927D01*
X347509Y230927D02*
X347509Y927D01*
X2509Y927D01*
X2509Y230927D01*
X28009Y209927D02*
X38276Y209927D01*
X48276Y209927D02*
X58542Y209927D01*
X68542Y209927D02*
X78809Y209927D01*
X88809Y209927D02*
X99076Y209927D01*
X109076Y209927D02*
X119342Y209927D01*
X129342Y209927D02*
X139609Y209927D01*
X149609Y209927D02*
X159876Y209927D01*
X169876Y209927D02*
X180142Y209927D01*
X190142Y209927D02*
X200409Y209927D01*
X210409Y209927D02*
X220676Y209927D01*
X230676Y209927D02*
X240942Y209927D01*
X250942Y209927D02*
X261209Y209927D01*
X271209Y209927D02*
X281476Y209927D01*
X291476Y209927D02*
X301742Y209927D01*
X311742Y209927D02*
X322009Y209927D01*
X322009Y197499D01*
X322009Y187499D02*
X322009Y175070D01*
X322009Y165070D02*
X322009Y152642D01*
X322009Y142642D02*
X322009Y130213D01*
X322009Y120213D02*
X322009Y107785D01*
X322009Y97785D02*
X322009Y85356D01*
X322009Y75356D02*
X322009Y62927D01*
X311742Y62927D01*
X301742Y62927D02*
X291476Y62927D01*
X281476Y62927D02*
X271209Y62927D01*
X261209Y62927D02*
X250942Y62927D01*
X240942Y62927D02*
X230676Y62927D01*
X220676Y62927D02*
X210409Y62927D01*
X200409Y62927D02*
X190142Y62927D01*
X180142Y62927D02*
X169876Y62927D01*
X159876Y62927D02*
X149609Y62927D01*
X139609Y62927D02*
X129342Y62927D01*
X119342Y62927D02*
X109076Y62927D01*
X99076Y62927D02*
X88809Y62927D01*
X78809Y62927D02*
X68542Y62927D01*
X58542Y62927D02*
X48276Y62927D01*
X38276Y62927D02*
X28009Y62927D01*
X28009Y75356D01*
X28009Y85356D02*
X28009Y97785D01*
X28009Y107785D02*
X28009Y120213D01*
X28009Y130213D02*
X28009Y142642D01*
X28009Y152642D02*
X28009Y165070D01*
X28009Y175070D02*
X28009Y187499D01*
X28009Y197499D02*
X28009Y209927D01*
D10*
X149390Y13681D02*
X149390Y6308D01*
X149390Y13681D02*
X153076Y13681D01*
X154305Y12452D01*
X154305Y9995D01*
X153076Y8766D01*
X149390Y8766D01*
X160560Y13681D02*
X161789Y12452D01*
X160560Y13681D02*
X158103Y13681D01*
X156874Y12452D01*
X156874Y7537D01*
X158103Y6308D01*
X160560Y6308D01*
X161789Y7537D01*
X164358Y6308D02*
X164358Y13681D01*
X168044Y13681D01*
X169273Y12452D01*
X169273Y11223D01*
X168044Y9995D01*
X169273Y8766D01*
X169273Y7537D01*
X168044Y6308D01*
X164358Y6308D01*
X164358Y9995D02*
X168044Y9995D01*
X179327Y13681D02*
X184242Y13681D01*
X179327Y13681D02*
X179327Y6308D01*
X184242Y6308D01*
X181784Y9995D02*
X179327Y9995D01*
X186811Y13681D02*
X186811Y6308D01*
X190497Y6308D01*
X191726Y7537D01*
X191726Y12452D01*
X190497Y13681D01*
X186811Y13681D01*
X197981Y13681D02*
X199210Y12452D01*
X197981Y13681D02*
X195524Y13681D01*
X194295Y12452D01*
X194295Y7537D01*
X195524Y6308D01*
X197981Y6308D01*
X199210Y7537D01*
X199210Y9995D01*
X196752Y9995D01*
X201779Y13681D02*
X206694Y13681D01*
X201779Y13681D02*
X201779Y6308D01*
X206694Y6308D01*
X204237Y9995D02*
X201779Y9995D01*
D12*
X91750Y250987D02*
X91750Y263687D01*
D13*
X231450Y257337D03*
X206050Y257337D03*
X180650Y257337D03*
X155250Y257337D03*
X129850Y257337D03*
X104450Y257337D03*
X256850Y257337D03*
D14*
X0Y0D02*
X350000Y0D01*
X350000Y280000D01*
X0Y280000D01*
X0Y0D01*
M02*
