G04 EAGLE Gerber RS-274X export*
G75*
%MOMM*%
%FSLAX34Y34*%
%LPD*%
%INBottom Copper*%
%IPPOS*%
%AMOC8*
5,1,8,0,0,1.08239X$1,22.5*%
G01*
%ADD10R,0.350000X2.200000*%
%ADD11R,0.900000X0.900000*%
%ADD12C,1.676400*%
%ADD13C,0.254000*%
%ADD14C,0.855600*%
%ADD15C,4.016000*%
%ADD16C,0.508000*%
%ADD17C,0.508000*%
%ADD18C,0.254000*%

G36*
X347256Y2425D02*
X347256Y2425D01*
X347307Y2427D01*
X347339Y2445D01*
X347375Y2453D01*
X347414Y2486D01*
X347459Y2510D01*
X347480Y2540D01*
X347508Y2563D01*
X347529Y2610D01*
X347559Y2652D01*
X347567Y2694D01*
X347579Y2722D01*
X347578Y2752D01*
X347586Y2794D01*
X347586Y277206D01*
X347575Y277256D01*
X347573Y277307D01*
X347555Y277339D01*
X347547Y277375D01*
X347514Y277414D01*
X347490Y277459D01*
X347460Y277480D01*
X347437Y277508D01*
X347390Y277529D01*
X347348Y277559D01*
X347306Y277567D01*
X347278Y277579D01*
X347248Y277578D01*
X347206Y277586D01*
X2794Y277586D01*
X2744Y277575D01*
X2693Y277573D01*
X2661Y277555D01*
X2625Y277547D01*
X2586Y277514D01*
X2541Y277490D01*
X2520Y277460D01*
X2492Y277437D01*
X2471Y277390D01*
X2441Y277348D01*
X2433Y277306D01*
X2421Y277278D01*
X2422Y277248D01*
X2414Y277206D01*
X2414Y2794D01*
X2425Y2744D01*
X2427Y2693D01*
X2445Y2661D01*
X2453Y2625D01*
X2486Y2586D01*
X2510Y2541D01*
X2540Y2520D01*
X2563Y2492D01*
X2610Y2471D01*
X2652Y2441D01*
X2694Y2433D01*
X2722Y2421D01*
X2752Y2422D01*
X2794Y2414D01*
X347206Y2414D01*
X347256Y2425D01*
G37*
%LPC*%
G36*
X267424Y60387D02*
X267424Y60387D01*
X266778Y60560D01*
X266199Y60894D01*
X265919Y61175D01*
X265875Y61202D01*
X265838Y61236D01*
X265803Y61247D01*
X265772Y61266D01*
X265721Y61271D01*
X265672Y61285D01*
X265636Y61279D01*
X265599Y61283D01*
X265551Y61264D01*
X265501Y61256D01*
X265466Y61232D01*
X265437Y61221D01*
X265416Y61198D01*
X265381Y61175D01*
X265101Y60895D01*
X259917Y60895D01*
X259278Y61534D01*
X259235Y61561D01*
X259197Y61595D01*
X259162Y61606D01*
X259131Y61625D01*
X259080Y61630D01*
X259031Y61645D01*
X258995Y61638D01*
X258958Y61642D01*
X258911Y61624D01*
X258860Y61615D01*
X258825Y61591D01*
X258796Y61580D01*
X258776Y61558D01*
X258740Y61534D01*
X258101Y60895D01*
X252917Y60895D01*
X252278Y61534D01*
X252235Y61561D01*
X252197Y61595D01*
X252162Y61606D01*
X252131Y61625D01*
X252080Y61630D01*
X252031Y61645D01*
X251995Y61638D01*
X251958Y61642D01*
X251911Y61624D01*
X251860Y61615D01*
X251825Y61591D01*
X251796Y61580D01*
X251776Y61558D01*
X251740Y61534D01*
X251101Y60895D01*
X245917Y60895D01*
X245278Y61534D01*
X245235Y61561D01*
X245197Y61595D01*
X245162Y61606D01*
X245131Y61625D01*
X245080Y61630D01*
X245031Y61645D01*
X244995Y61638D01*
X244958Y61642D01*
X244911Y61624D01*
X244860Y61615D01*
X244825Y61591D01*
X244796Y61580D01*
X244776Y61558D01*
X244740Y61534D01*
X244101Y60895D01*
X238917Y60895D01*
X238278Y61534D01*
X238235Y61561D01*
X238197Y61595D01*
X238162Y61606D01*
X238131Y61625D01*
X238080Y61630D01*
X238031Y61645D01*
X237995Y61638D01*
X237958Y61642D01*
X237911Y61624D01*
X237860Y61615D01*
X237825Y61591D01*
X237796Y61580D01*
X237776Y61558D01*
X237740Y61534D01*
X237101Y60895D01*
X231917Y60895D01*
X231278Y61534D01*
X231235Y61561D01*
X231197Y61595D01*
X231162Y61606D01*
X231131Y61625D01*
X231080Y61630D01*
X231031Y61645D01*
X230995Y61638D01*
X230958Y61642D01*
X230911Y61624D01*
X230860Y61615D01*
X230825Y61591D01*
X230796Y61580D01*
X230776Y61558D01*
X230740Y61534D01*
X230101Y60895D01*
X224917Y60895D01*
X224278Y61534D01*
X224235Y61561D01*
X224197Y61595D01*
X224162Y61606D01*
X224131Y61625D01*
X224080Y61630D01*
X224031Y61645D01*
X223995Y61638D01*
X223958Y61642D01*
X223911Y61624D01*
X223860Y61615D01*
X223825Y61591D01*
X223796Y61580D01*
X223776Y61558D01*
X223740Y61534D01*
X223101Y60895D01*
X217917Y60895D01*
X217278Y61534D01*
X217235Y61561D01*
X217197Y61595D01*
X217162Y61606D01*
X217131Y61625D01*
X217080Y61630D01*
X217031Y61645D01*
X216995Y61638D01*
X216958Y61642D01*
X216911Y61624D01*
X216860Y61615D01*
X216825Y61591D01*
X216796Y61580D01*
X216776Y61558D01*
X216740Y61534D01*
X216101Y60895D01*
X210917Y60895D01*
X210278Y61534D01*
X210235Y61561D01*
X210197Y61595D01*
X210162Y61606D01*
X210131Y61625D01*
X210080Y61630D01*
X210031Y61645D01*
X209995Y61638D01*
X209958Y61642D01*
X209911Y61624D01*
X209860Y61615D01*
X209825Y61591D01*
X209796Y61580D01*
X209776Y61558D01*
X209740Y61534D01*
X209101Y60895D01*
X203917Y60895D01*
X203278Y61534D01*
X203235Y61561D01*
X203197Y61595D01*
X203162Y61606D01*
X203131Y61625D01*
X203080Y61630D01*
X203031Y61645D01*
X202995Y61638D01*
X202958Y61642D01*
X202911Y61624D01*
X202860Y61615D01*
X202825Y61591D01*
X202796Y61580D01*
X202776Y61558D01*
X202740Y61534D01*
X202101Y60895D01*
X196917Y60895D01*
X196278Y61534D01*
X196235Y61561D01*
X196197Y61595D01*
X196162Y61606D01*
X196131Y61625D01*
X196080Y61630D01*
X196031Y61645D01*
X195995Y61638D01*
X195958Y61642D01*
X195911Y61624D01*
X195860Y61615D01*
X195825Y61591D01*
X195796Y61580D01*
X195776Y61558D01*
X195740Y61534D01*
X195101Y60895D01*
X189917Y60895D01*
X189278Y61534D01*
X189235Y61561D01*
X189197Y61595D01*
X189162Y61606D01*
X189131Y61625D01*
X189080Y61630D01*
X189031Y61645D01*
X188995Y61638D01*
X188958Y61642D01*
X188911Y61624D01*
X188860Y61615D01*
X188825Y61591D01*
X188796Y61580D01*
X188776Y61558D01*
X188740Y61534D01*
X188101Y60895D01*
X182917Y60895D01*
X182278Y61534D01*
X182235Y61561D01*
X182197Y61595D01*
X182162Y61606D01*
X182131Y61625D01*
X182080Y61630D01*
X182031Y61645D01*
X181995Y61638D01*
X181958Y61642D01*
X181911Y61624D01*
X181860Y61615D01*
X181825Y61591D01*
X181796Y61580D01*
X181776Y61558D01*
X181740Y61534D01*
X181101Y60895D01*
X175917Y60895D01*
X175278Y61534D01*
X175235Y61561D01*
X175197Y61595D01*
X175162Y61606D01*
X175131Y61625D01*
X175080Y61630D01*
X175031Y61645D01*
X174995Y61638D01*
X174958Y61642D01*
X174911Y61624D01*
X174860Y61615D01*
X174825Y61591D01*
X174796Y61580D01*
X174776Y61558D01*
X174740Y61534D01*
X174101Y60895D01*
X168917Y60895D01*
X168278Y61534D01*
X168235Y61561D01*
X168197Y61595D01*
X168162Y61606D01*
X168131Y61625D01*
X168080Y61630D01*
X168031Y61645D01*
X167995Y61638D01*
X167958Y61642D01*
X167911Y61624D01*
X167860Y61615D01*
X167825Y61591D01*
X167796Y61580D01*
X167776Y61558D01*
X167740Y61534D01*
X167101Y60895D01*
X161917Y60895D01*
X161278Y61534D01*
X161235Y61561D01*
X161197Y61595D01*
X161162Y61606D01*
X161131Y61625D01*
X161080Y61630D01*
X161031Y61645D01*
X160995Y61638D01*
X160958Y61642D01*
X160911Y61624D01*
X160860Y61615D01*
X160825Y61591D01*
X160796Y61580D01*
X160776Y61558D01*
X160740Y61534D01*
X160101Y60895D01*
X154917Y60895D01*
X154637Y61175D01*
X154594Y61202D01*
X154556Y61236D01*
X154521Y61247D01*
X154490Y61266D01*
X154439Y61271D01*
X154390Y61285D01*
X154354Y61279D01*
X154317Y61283D01*
X154270Y61264D01*
X154219Y61256D01*
X154184Y61232D01*
X154156Y61221D01*
X154135Y61198D01*
X154099Y61175D01*
X153819Y60894D01*
X153240Y60560D01*
X152594Y60387D01*
X151270Y60387D01*
X151270Y73546D01*
X151259Y73596D01*
X151257Y73647D01*
X151239Y73679D01*
X151231Y73715D01*
X151198Y73754D01*
X151174Y73799D01*
X151144Y73820D01*
X151121Y73849D01*
X151074Y73870D01*
X151032Y73899D01*
X150990Y73907D01*
X150962Y73920D01*
X150932Y73918D01*
X150890Y73927D01*
X150128Y73927D01*
X150078Y73915D01*
X150027Y73913D01*
X149995Y73895D01*
X149959Y73887D01*
X149920Y73855D01*
X149875Y73830D01*
X149854Y73800D01*
X149826Y73777D01*
X149805Y73730D01*
X149775Y73689D01*
X149767Y73647D01*
X149755Y73619D01*
X149756Y73595D01*
X149755Y73593D01*
X149755Y73584D01*
X149748Y73546D01*
X149748Y60387D01*
X148424Y60387D01*
X147778Y60560D01*
X147199Y60894D01*
X146919Y61175D01*
X146875Y61202D01*
X146838Y61236D01*
X146803Y61247D01*
X146772Y61266D01*
X146721Y61271D01*
X146672Y61285D01*
X146636Y61279D01*
X146599Y61283D01*
X146551Y61264D01*
X146501Y61256D01*
X146466Y61232D01*
X146437Y61221D01*
X146416Y61198D01*
X146381Y61175D01*
X146101Y60895D01*
X140917Y60895D01*
X140637Y61175D01*
X140594Y61202D01*
X140556Y61236D01*
X140521Y61247D01*
X140490Y61266D01*
X140439Y61271D01*
X140390Y61285D01*
X140354Y61279D01*
X140317Y61283D01*
X140270Y61264D01*
X140219Y61256D01*
X140184Y61232D01*
X140156Y61221D01*
X140135Y61198D01*
X140099Y61175D01*
X139819Y60894D01*
X139240Y60560D01*
X138594Y60387D01*
X137270Y60387D01*
X137270Y73546D01*
X137259Y73596D01*
X137257Y73647D01*
X137239Y73679D01*
X137231Y73715D01*
X137198Y73754D01*
X137174Y73799D01*
X137144Y73820D01*
X137121Y73849D01*
X137074Y73870D01*
X137032Y73899D01*
X136990Y73907D01*
X136962Y73920D01*
X136932Y73918D01*
X136890Y73927D01*
X136128Y73927D01*
X136078Y73915D01*
X136027Y73913D01*
X135995Y73895D01*
X135959Y73887D01*
X135920Y73855D01*
X135875Y73830D01*
X135854Y73800D01*
X135826Y73777D01*
X135805Y73730D01*
X135775Y73689D01*
X135767Y73647D01*
X135755Y73619D01*
X135756Y73595D01*
X135755Y73593D01*
X135755Y73584D01*
X135748Y73546D01*
X135748Y60387D01*
X134424Y60387D01*
X133778Y60560D01*
X133199Y60894D01*
X132919Y61175D01*
X132875Y61202D01*
X132838Y61236D01*
X132803Y61247D01*
X132772Y61266D01*
X132721Y61271D01*
X132672Y61285D01*
X132636Y61279D01*
X132599Y61283D01*
X132551Y61264D01*
X132501Y61256D01*
X132466Y61232D01*
X132437Y61221D01*
X132416Y61198D01*
X132381Y61175D01*
X132101Y60895D01*
X126917Y60895D01*
X126637Y61175D01*
X126594Y61202D01*
X126556Y61236D01*
X126521Y61247D01*
X126490Y61266D01*
X126439Y61271D01*
X126390Y61285D01*
X126354Y61279D01*
X126317Y61283D01*
X126270Y61264D01*
X126219Y61256D01*
X126184Y61232D01*
X126156Y61221D01*
X126135Y61198D01*
X126099Y61175D01*
X125819Y60894D01*
X125240Y60560D01*
X124594Y60387D01*
X123270Y60387D01*
X123270Y73546D01*
X123259Y73596D01*
X123257Y73647D01*
X123239Y73679D01*
X123231Y73715D01*
X123198Y73754D01*
X123174Y73799D01*
X123144Y73820D01*
X123121Y73849D01*
X123074Y73870D01*
X123032Y73899D01*
X122990Y73907D01*
X122962Y73920D01*
X122932Y73918D01*
X122890Y73927D01*
X122128Y73927D01*
X122078Y73915D01*
X122027Y73913D01*
X121995Y73895D01*
X121959Y73887D01*
X121920Y73855D01*
X121875Y73830D01*
X121854Y73800D01*
X121826Y73777D01*
X121805Y73730D01*
X121775Y73689D01*
X121767Y73647D01*
X121755Y73619D01*
X121756Y73595D01*
X121755Y73593D01*
X121755Y73584D01*
X121748Y73546D01*
X121748Y60387D01*
X120424Y60387D01*
X119778Y60560D01*
X119199Y60894D01*
X118919Y61175D01*
X118875Y61202D01*
X118838Y61236D01*
X118803Y61247D01*
X118772Y61266D01*
X118721Y61271D01*
X118672Y61285D01*
X118636Y61279D01*
X118599Y61283D01*
X118551Y61264D01*
X118501Y61256D01*
X118466Y61232D01*
X118437Y61221D01*
X118416Y61198D01*
X118381Y61175D01*
X118101Y60895D01*
X112917Y60895D01*
X112278Y61534D01*
X112235Y61561D01*
X112197Y61595D01*
X112162Y61606D01*
X112131Y61625D01*
X112080Y61630D01*
X112031Y61645D01*
X111995Y61638D01*
X111958Y61642D01*
X111911Y61624D01*
X111860Y61615D01*
X111825Y61591D01*
X111796Y61580D01*
X111776Y61558D01*
X111740Y61534D01*
X111101Y60895D01*
X105917Y60895D01*
X105278Y61534D01*
X105235Y61561D01*
X105197Y61595D01*
X105162Y61606D01*
X105131Y61625D01*
X105080Y61630D01*
X105031Y61645D01*
X104995Y61638D01*
X104958Y61642D01*
X104911Y61624D01*
X104860Y61615D01*
X104825Y61591D01*
X104796Y61580D01*
X104776Y61558D01*
X104740Y61534D01*
X104101Y60895D01*
X98917Y60895D01*
X98278Y61534D01*
X98235Y61561D01*
X98197Y61595D01*
X98162Y61606D01*
X98131Y61625D01*
X98080Y61630D01*
X98031Y61645D01*
X97995Y61638D01*
X97958Y61642D01*
X97911Y61624D01*
X97860Y61615D01*
X97825Y61591D01*
X97796Y61580D01*
X97776Y61558D01*
X97740Y61534D01*
X97101Y60895D01*
X91917Y60895D01*
X91278Y61534D01*
X91235Y61561D01*
X91197Y61595D01*
X91162Y61606D01*
X91131Y61625D01*
X91080Y61630D01*
X91031Y61645D01*
X90995Y61638D01*
X90958Y61642D01*
X90911Y61624D01*
X90860Y61615D01*
X90825Y61591D01*
X90796Y61580D01*
X90776Y61558D01*
X90740Y61534D01*
X90101Y60895D01*
X84917Y60895D01*
X84278Y61534D01*
X84235Y61561D01*
X84197Y61595D01*
X84162Y61606D01*
X84131Y61625D01*
X84080Y61630D01*
X84031Y61645D01*
X83995Y61638D01*
X83958Y61642D01*
X83911Y61624D01*
X83860Y61615D01*
X83825Y61591D01*
X83796Y61580D01*
X83776Y61558D01*
X83740Y61534D01*
X83101Y60895D01*
X77917Y60895D01*
X77637Y61175D01*
X77594Y61202D01*
X77556Y61236D01*
X77521Y61247D01*
X77490Y61266D01*
X77439Y61271D01*
X77390Y61285D01*
X77354Y61279D01*
X77317Y61283D01*
X77270Y61264D01*
X77219Y61256D01*
X77184Y61232D01*
X77156Y61221D01*
X77135Y61198D01*
X77099Y61175D01*
X76819Y60894D01*
X76240Y60560D01*
X75594Y60387D01*
X74270Y60387D01*
X74270Y73546D01*
X74259Y73596D01*
X74257Y73647D01*
X74239Y73679D01*
X74231Y73715D01*
X74198Y73754D01*
X74174Y73799D01*
X74144Y73820D01*
X74121Y73849D01*
X74074Y73870D01*
X74032Y73899D01*
X73990Y73907D01*
X73962Y73920D01*
X73932Y73918D01*
X73890Y73927D01*
X73508Y73927D01*
X73508Y73928D01*
X73890Y73928D01*
X73940Y73940D01*
X73991Y73942D01*
X74023Y73959D01*
X74059Y73968D01*
X74098Y74000D01*
X74143Y74025D01*
X74164Y74055D01*
X74192Y74078D01*
X74213Y74125D01*
X74243Y74166D01*
X74251Y74208D01*
X74263Y74236D01*
X74262Y74267D01*
X74270Y74308D01*
X74270Y87468D01*
X75594Y87468D01*
X76240Y87295D01*
X76636Y87066D01*
X76696Y87048D01*
X76754Y87022D01*
X76778Y87023D01*
X76802Y87016D01*
X76864Y87026D01*
X76927Y87029D01*
X76948Y87041D01*
X76973Y87045D01*
X77024Y87082D01*
X77079Y87112D01*
X77093Y87132D01*
X77113Y87146D01*
X77142Y87202D01*
X77179Y87253D01*
X77184Y87280D01*
X77194Y87299D01*
X77195Y87337D01*
X77206Y87395D01*
X77206Y87965D01*
X77189Y88038D01*
X77188Y88071D01*
X77181Y88083D01*
X77176Y88114D01*
X77169Y88124D01*
X77167Y88134D01*
X77143Y88163D01*
X77117Y88202D01*
X77105Y88223D01*
X77100Y88227D01*
X77095Y88234D01*
X68743Y96586D01*
X68679Y96626D01*
X68617Y96670D01*
X68605Y96672D01*
X68596Y96677D01*
X68559Y96681D01*
X68474Y96697D01*
X43632Y96697D01*
X30676Y109653D01*
X30676Y125770D01*
X30665Y125819D01*
X30663Y125870D01*
X30645Y125903D01*
X30637Y125938D01*
X30604Y125978D01*
X30580Y126023D01*
X30550Y126044D01*
X30527Y126072D01*
X30480Y126093D01*
X30438Y126122D01*
X30396Y126130D01*
X30369Y126143D01*
X30338Y126142D01*
X30296Y126150D01*
X28637Y126150D01*
X27446Y127341D01*
X27446Y138025D01*
X28637Y139215D01*
X39321Y139215D01*
X40565Y137972D01*
X40587Y137958D01*
X40603Y137938D01*
X40659Y137913D01*
X40712Y137880D01*
X40737Y137878D01*
X40761Y137867D01*
X40823Y137870D01*
X40884Y137864D01*
X40908Y137873D01*
X40934Y137874D01*
X40988Y137903D01*
X41046Y137925D01*
X41064Y137944D01*
X41086Y137957D01*
X41122Y138007D01*
X41164Y138053D01*
X41171Y138077D01*
X41186Y138098D01*
X41203Y138183D01*
X41213Y138219D01*
X41211Y138229D01*
X41214Y138241D01*
X41214Y140258D01*
X41196Y140332D01*
X41183Y140407D01*
X41177Y140417D01*
X41174Y140427D01*
X41150Y140456D01*
X41102Y140527D01*
X40169Y141460D01*
X40126Y141487D01*
X40088Y141522D01*
X40053Y141532D01*
X40022Y141552D01*
X39971Y141557D01*
X39922Y141571D01*
X39886Y141565D01*
X39850Y141568D01*
X39802Y141550D01*
X39752Y141541D01*
X39716Y141518D01*
X39688Y141507D01*
X39667Y141484D01*
X39631Y141460D01*
X39321Y141150D01*
X28637Y141150D01*
X27446Y142341D01*
X27446Y153025D01*
X28637Y154215D01*
X39321Y154215D01*
X40512Y153025D01*
X40512Y150617D01*
X40529Y150543D01*
X40542Y150468D01*
X40549Y150458D01*
X40551Y150448D01*
X40575Y150419D01*
X40623Y150348D01*
X42032Y148939D01*
X47152Y143819D01*
X47174Y143806D01*
X47190Y143786D01*
X47246Y143761D01*
X47299Y143728D01*
X47325Y143726D01*
X47348Y143715D01*
X47410Y143717D01*
X47471Y143711D01*
X47495Y143721D01*
X47521Y143722D01*
X47576Y143751D01*
X47633Y143773D01*
X47651Y143792D01*
X47674Y143804D01*
X47709Y143855D01*
X47751Y143900D01*
X47758Y143925D01*
X47773Y143946D01*
X47790Y144031D01*
X47800Y144066D01*
X47799Y144076D01*
X47801Y144088D01*
X47801Y153423D01*
X48992Y154614D01*
X59676Y154614D01*
X60866Y153423D01*
X60866Y151764D01*
X60878Y151715D01*
X60880Y151664D01*
X60897Y151631D01*
X60906Y151596D01*
X60938Y151556D01*
X60963Y151511D01*
X60993Y151490D01*
X61016Y151462D01*
X61063Y151441D01*
X61104Y151412D01*
X61146Y151403D01*
X61174Y151391D01*
X61205Y151392D01*
X61247Y151384D01*
X62365Y151384D01*
X67090Y146659D01*
X67112Y146646D01*
X67128Y146626D01*
X67184Y146600D01*
X67237Y146568D01*
X67263Y146565D01*
X67286Y146555D01*
X67348Y146557D01*
X67409Y146551D01*
X67433Y146560D01*
X67459Y146561D01*
X67514Y146591D01*
X67571Y146613D01*
X67589Y146632D01*
X67611Y146644D01*
X67647Y146695D01*
X67689Y146740D01*
X67696Y146765D01*
X67711Y146786D01*
X67728Y146870D01*
X67738Y146906D01*
X67736Y146916D01*
X67739Y146928D01*
X67739Y153410D01*
X68930Y154600D01*
X79614Y154600D01*
X80804Y153410D01*
X80804Y153117D01*
X80816Y153067D01*
X80818Y153016D01*
X80835Y152984D01*
X80844Y152948D01*
X80876Y152909D01*
X80901Y152864D01*
X80931Y152843D01*
X80954Y152815D01*
X81001Y152794D01*
X81042Y152764D01*
X81084Y152756D01*
X81112Y152744D01*
X81143Y152745D01*
X81185Y152737D01*
X86948Y152737D01*
X86998Y152748D01*
X87049Y152750D01*
X87081Y152768D01*
X87117Y152776D01*
X87156Y152809D01*
X87201Y152833D01*
X87222Y152863D01*
X87250Y152886D01*
X87271Y152933D01*
X87301Y152975D01*
X87309Y153016D01*
X87321Y153044D01*
X87320Y153075D01*
X87328Y153117D01*
X87328Y153506D01*
X88519Y154697D01*
X88908Y154697D01*
X88958Y154708D01*
X89009Y154710D01*
X89041Y154728D01*
X89077Y154736D01*
X89116Y154769D01*
X89161Y154793D01*
X89182Y154823D01*
X89210Y154846D01*
X89231Y154893D01*
X89261Y154935D01*
X89269Y154976D01*
X89281Y155004D01*
X89280Y155035D01*
X89288Y155077D01*
X89288Y170755D01*
X123428Y204895D01*
X123468Y204960D01*
X123512Y205022D01*
X123514Y205034D01*
X123520Y205042D01*
X123523Y205079D01*
X123540Y205164D01*
X123540Y206106D01*
X124500Y208425D01*
X125166Y209091D01*
X125206Y209156D01*
X125250Y209218D01*
X125252Y209230D01*
X125258Y209238D01*
X125261Y209275D01*
X125278Y209360D01*
X125278Y247704D01*
X125265Y247759D01*
X125264Y247776D01*
X125262Y247780D01*
X125257Y247829D01*
X125244Y247849D01*
X125238Y247873D01*
X125198Y247922D01*
X125164Y247975D01*
X125141Y247990D01*
X125128Y248006D01*
X125094Y248022D01*
X125043Y248055D01*
X123951Y248507D01*
X121021Y251437D01*
X119436Y255265D01*
X119436Y259408D01*
X121021Y263236D01*
X123951Y266166D01*
X127779Y267751D01*
X131922Y267751D01*
X135750Y266166D01*
X138680Y263236D01*
X140265Y259408D01*
X140265Y255265D01*
X138680Y251437D01*
X135750Y248507D01*
X134658Y248055D01*
X134606Y248018D01*
X134551Y247988D01*
X134537Y247968D01*
X134517Y247954D01*
X134487Y247898D01*
X134451Y247846D01*
X134446Y247820D01*
X134436Y247801D01*
X134435Y247763D01*
X134433Y247753D01*
X134430Y247747D01*
X134430Y247741D01*
X134423Y247704D01*
X134423Y209803D01*
X134435Y209754D01*
X134437Y209703D01*
X134454Y209671D01*
X134463Y209635D01*
X134495Y209595D01*
X134520Y209551D01*
X134549Y209529D01*
X134573Y209501D01*
X134620Y209480D01*
X134661Y209451D01*
X134703Y209443D01*
X134731Y209430D01*
X134762Y209431D01*
X134803Y209423D01*
X192044Y209423D01*
X228571Y172896D01*
X228571Y154667D01*
X228583Y154617D01*
X228585Y154566D01*
X228602Y154534D01*
X228610Y154498D01*
X228643Y154458D01*
X228667Y154414D01*
X228697Y154393D01*
X228721Y154364D01*
X228767Y154343D01*
X228809Y154314D01*
X228851Y154306D01*
X228879Y154293D01*
X228909Y154294D01*
X228951Y154286D01*
X229340Y154286D01*
X230531Y153096D01*
X230531Y152773D01*
X230543Y152724D01*
X230545Y152673D01*
X230562Y152640D01*
X230570Y152605D01*
X230603Y152565D01*
X230627Y152520D01*
X230657Y152499D01*
X230681Y152471D01*
X230727Y152450D01*
X230769Y152421D01*
X230811Y152413D01*
X230839Y152400D01*
X230869Y152401D01*
X230911Y152393D01*
X237228Y152393D01*
X237278Y152405D01*
X237329Y152407D01*
X237361Y152424D01*
X237397Y152433D01*
X237436Y152465D01*
X237481Y152489D01*
X237502Y152519D01*
X237530Y152543D01*
X237551Y152589D01*
X237581Y152631D01*
X237589Y152673D01*
X237601Y152701D01*
X237600Y152731D01*
X237608Y152773D01*
X237608Y153162D01*
X238799Y154353D01*
X249483Y154353D01*
X250674Y153162D01*
X250674Y142478D01*
X249483Y141288D01*
X238799Y141288D01*
X237608Y142478D01*
X237608Y142867D01*
X237597Y142917D01*
X237595Y142968D01*
X237577Y143000D01*
X237569Y143036D01*
X237536Y143076D01*
X237512Y143120D01*
X237482Y143141D01*
X237459Y143170D01*
X237412Y143191D01*
X237370Y143220D01*
X237329Y143228D01*
X237301Y143241D01*
X237270Y143240D01*
X237228Y143248D01*
X230911Y143248D01*
X230862Y143236D01*
X230811Y143234D01*
X230778Y143217D01*
X230743Y143208D01*
X230703Y143176D01*
X230658Y143151D01*
X230637Y143121D01*
X230609Y143098D01*
X230588Y143051D01*
X230559Y143010D01*
X230550Y142968D01*
X230538Y142940D01*
X230539Y142909D01*
X230531Y142867D01*
X230531Y142412D01*
X229340Y141221D01*
X221120Y141221D01*
X221095Y141215D01*
X221069Y141217D01*
X221011Y141196D01*
X220951Y141181D01*
X220931Y141165D01*
X220907Y141156D01*
X220865Y141111D01*
X220817Y141071D01*
X220807Y141048D01*
X220789Y141029D01*
X220772Y140969D01*
X220746Y140913D01*
X220747Y140887D01*
X220740Y140863D01*
X220751Y140802D01*
X220753Y140740D01*
X220765Y140717D01*
X220770Y140692D01*
X220818Y140620D01*
X220836Y140588D01*
X220844Y140582D01*
X220851Y140572D01*
X222025Y139398D01*
X222089Y139358D01*
X222152Y139314D01*
X222164Y139312D01*
X222172Y139306D01*
X222209Y139303D01*
X222294Y139286D01*
X229340Y139286D01*
X230531Y138096D01*
X230531Y127412D01*
X229340Y126221D01*
X224654Y126221D01*
X224580Y126204D01*
X224505Y126191D01*
X224495Y126184D01*
X224485Y126181D01*
X224457Y126158D01*
X224385Y126110D01*
X224010Y125735D01*
X219171Y120895D01*
X219157Y120873D01*
X219138Y120857D01*
X219112Y120800D01*
X219080Y120748D01*
X219077Y120722D01*
X219067Y120699D01*
X219069Y120637D01*
X219063Y120576D01*
X219072Y120552D01*
X219073Y120526D01*
X219103Y120471D01*
X219125Y120414D01*
X219144Y120396D01*
X219156Y120373D01*
X219206Y120338D01*
X219252Y120296D01*
X219277Y120289D01*
X219298Y120274D01*
X219382Y120257D01*
X219418Y120247D01*
X219428Y120248D01*
X219440Y120246D01*
X234926Y120246D01*
X235000Y120263D01*
X235075Y120276D01*
X235085Y120283D01*
X235095Y120286D01*
X235123Y120309D01*
X235195Y120358D01*
X240476Y125639D01*
X240489Y125660D01*
X240509Y125677D01*
X240535Y125733D01*
X240567Y125786D01*
X240570Y125811D01*
X240580Y125835D01*
X240578Y125897D01*
X240584Y125958D01*
X240575Y125982D01*
X240574Y126008D01*
X240544Y126062D01*
X240522Y126120D01*
X240503Y126138D01*
X240491Y126160D01*
X240440Y126196D01*
X240395Y126238D01*
X240370Y126245D01*
X240349Y126260D01*
X240265Y126276D01*
X240229Y126287D01*
X240219Y126285D01*
X240207Y126288D01*
X238799Y126288D01*
X237608Y127478D01*
X237608Y138162D01*
X238799Y139353D01*
X249483Y139353D01*
X250674Y138162D01*
X250674Y136503D01*
X250685Y136454D01*
X250687Y136403D01*
X250705Y136370D01*
X250713Y136335D01*
X250746Y136295D01*
X250770Y136250D01*
X250800Y136229D01*
X250824Y136201D01*
X250870Y136180D01*
X250912Y136151D01*
X250954Y136143D01*
X250982Y136130D01*
X251012Y136131D01*
X251054Y136123D01*
X251295Y136123D01*
X251369Y136140D01*
X251443Y136153D01*
X251454Y136160D01*
X251464Y136163D01*
X251492Y136186D01*
X251564Y136234D01*
X251586Y136256D01*
X251594Y136271D01*
X251597Y136273D01*
X251601Y136280D01*
X251626Y136321D01*
X251670Y136383D01*
X251672Y136395D01*
X251677Y136404D01*
X251681Y136441D01*
X251697Y136526D01*
X251697Y193474D01*
X251680Y193548D01*
X251667Y193623D01*
X251660Y193633D01*
X251658Y193643D01*
X251634Y193672D01*
X251586Y193743D01*
X228743Y216586D01*
X226697Y218632D01*
X226697Y247779D01*
X226683Y247840D01*
X226676Y247904D01*
X226663Y247924D01*
X226658Y247947D01*
X226617Y247996D01*
X226583Y248050D01*
X226561Y248065D01*
X226548Y248081D01*
X226513Y248096D01*
X226463Y248130D01*
X225551Y248507D01*
X222621Y251437D01*
X221036Y255265D01*
X221036Y259408D01*
X222621Y263236D01*
X225551Y266166D01*
X229379Y267751D01*
X233522Y267751D01*
X237350Y266166D01*
X240280Y263236D01*
X241865Y259408D01*
X241865Y255265D01*
X240280Y251437D01*
X237350Y248507D01*
X233537Y246928D01*
X233486Y246891D01*
X233430Y246861D01*
X233416Y246841D01*
X233397Y246827D01*
X233367Y246771D01*
X233330Y246719D01*
X233325Y246693D01*
X233315Y246674D01*
X233314Y246637D01*
X233303Y246577D01*
X233303Y221526D01*
X233320Y221452D01*
X233333Y221377D01*
X233340Y221367D01*
X233342Y221357D01*
X233366Y221328D01*
X233414Y221257D01*
X256257Y198414D01*
X258303Y196368D01*
X258303Y155094D01*
X258306Y155081D01*
X258304Y155067D01*
X258325Y154997D01*
X258342Y154925D01*
X258351Y154915D01*
X258355Y154902D01*
X258406Y154848D01*
X258452Y154792D01*
X258465Y154786D01*
X258474Y154776D01*
X258543Y154751D01*
X258611Y154721D01*
X258624Y154721D01*
X258637Y154716D01*
X258781Y154727D01*
X258784Y154727D01*
X259426Y154899D01*
X263499Y154899D01*
X263499Y148240D01*
X263511Y148190D01*
X263512Y148139D01*
X263530Y148107D01*
X263538Y148071D01*
X263571Y148032D01*
X263595Y147987D01*
X263625Y147966D01*
X263649Y147937D01*
X263695Y147916D01*
X263737Y147887D01*
X263779Y147879D01*
X263807Y147866D01*
X263837Y147868D01*
X263879Y147859D01*
X264261Y147859D01*
X264261Y147858D01*
X263879Y147858D01*
X263829Y147846D01*
X263778Y147844D01*
X263746Y147827D01*
X263710Y147818D01*
X263671Y147786D01*
X263626Y147761D01*
X263605Y147731D01*
X263577Y147708D01*
X263556Y147661D01*
X263527Y147620D01*
X263518Y147578D01*
X263506Y147550D01*
X263507Y147519D01*
X263499Y147477D01*
X263499Y140818D01*
X259426Y140818D01*
X258781Y140990D01*
X258768Y140991D01*
X258755Y140996D01*
X258682Y140994D01*
X258608Y140996D01*
X258596Y140990D01*
X258582Y140990D01*
X258518Y140955D01*
X258451Y140924D01*
X258442Y140914D01*
X258430Y140907D01*
X258388Y140847D01*
X258341Y140790D01*
X258338Y140776D01*
X258330Y140765D01*
X258303Y140623D01*
X258303Y139694D01*
X258309Y139669D01*
X258306Y139643D01*
X258328Y139585D01*
X258342Y139525D01*
X258359Y139505D01*
X258368Y139481D01*
X258413Y139439D01*
X258452Y139392D01*
X258476Y139381D01*
X258495Y139363D01*
X258554Y139346D01*
X258611Y139321D01*
X258636Y139322D01*
X258661Y139314D01*
X258722Y139325D01*
X258784Y139327D01*
X258806Y139340D01*
X258832Y139344D01*
X258902Y139391D01*
X269602Y139391D01*
X270793Y138201D01*
X270793Y127517D01*
X269602Y126326D01*
X267943Y126326D01*
X267893Y126314D01*
X267842Y126312D01*
X267810Y126295D01*
X267774Y126286D01*
X267735Y126254D01*
X267690Y126229D01*
X267669Y126200D01*
X267641Y126176D01*
X267620Y126129D01*
X267590Y126088D01*
X267582Y126046D01*
X267570Y126018D01*
X267571Y125987D01*
X267563Y125946D01*
X267563Y112892D01*
X251998Y97327D01*
X251958Y97262D01*
X251914Y97200D01*
X251912Y97188D01*
X251906Y97180D01*
X251903Y97143D01*
X251886Y97058D01*
X251886Y96383D01*
X251892Y96358D01*
X251890Y96332D01*
X251912Y96274D01*
X251926Y96214D01*
X251942Y96194D01*
X251951Y96170D01*
X251997Y96128D01*
X252036Y96081D01*
X252059Y96070D01*
X252078Y96053D01*
X252138Y96035D01*
X252194Y96010D01*
X252220Y96011D01*
X252245Y96003D01*
X252305Y96014D01*
X252367Y96016D01*
X252390Y96029D01*
X252415Y96033D01*
X252487Y96081D01*
X252519Y96099D01*
X252525Y96107D01*
X252535Y96114D01*
X261132Y104711D01*
X263178Y106757D01*
X282928Y106757D01*
X283002Y106774D01*
X283077Y106787D01*
X283087Y106794D01*
X283097Y106796D01*
X283126Y106820D01*
X283197Y106868D01*
X290536Y114207D01*
X290577Y114272D01*
X290620Y114334D01*
X290623Y114346D01*
X290628Y114354D01*
X290631Y114391D01*
X290648Y114476D01*
X290648Y125946D01*
X290636Y125995D01*
X290634Y126046D01*
X290617Y126078D01*
X290608Y126114D01*
X290576Y126154D01*
X290551Y126198D01*
X290522Y126220D01*
X290498Y126248D01*
X290451Y126269D01*
X290410Y126298D01*
X290368Y126306D01*
X290340Y126319D01*
X290309Y126318D01*
X290268Y126326D01*
X288609Y126326D01*
X287418Y127517D01*
X287418Y138201D01*
X288609Y139391D01*
X299293Y139391D01*
X300483Y138201D01*
X300483Y127517D01*
X299293Y126326D01*
X297634Y126326D01*
X297584Y126314D01*
X297533Y126312D01*
X297501Y126295D01*
X297465Y126286D01*
X297425Y126254D01*
X297381Y126229D01*
X297360Y126200D01*
X297331Y126176D01*
X297310Y126129D01*
X297281Y126088D01*
X297273Y126046D01*
X297260Y126018D01*
X297261Y125987D01*
X297253Y125946D01*
X297253Y114575D01*
X297265Y114523D01*
X297267Y114487D01*
X297276Y114470D01*
X297284Y114426D01*
X297290Y114416D01*
X297293Y114406D01*
X297303Y114394D01*
X297303Y111632D01*
X295257Y109586D01*
X287868Y102197D01*
X287855Y102175D01*
X287835Y102159D01*
X287809Y102103D01*
X287777Y102050D01*
X287774Y102025D01*
X287764Y102001D01*
X287766Y101939D01*
X287760Y101878D01*
X287769Y101854D01*
X287770Y101828D01*
X287800Y101773D01*
X287822Y101716D01*
X287841Y101698D01*
X287853Y101676D01*
X287903Y101640D01*
X287949Y101598D01*
X287974Y101591D01*
X287995Y101576D01*
X288079Y101559D01*
X288115Y101549D01*
X288125Y101551D01*
X288137Y101548D01*
X300720Y101548D01*
X300794Y101566D01*
X300869Y101579D01*
X300879Y101585D01*
X300889Y101588D01*
X300917Y101611D01*
X300989Y101660D01*
X312487Y113158D01*
X312527Y113223D01*
X312571Y113285D01*
X312573Y113297D01*
X312579Y113305D01*
X312582Y113342D01*
X312586Y113361D01*
X312592Y113374D01*
X312591Y113388D01*
X312599Y113427D01*
X312599Y125408D01*
X312587Y125458D01*
X312585Y125509D01*
X312568Y125541D01*
X312559Y125577D01*
X312527Y125616D01*
X312502Y125661D01*
X312472Y125682D01*
X312449Y125710D01*
X312402Y125731D01*
X312361Y125761D01*
X312319Y125769D01*
X312291Y125781D01*
X312260Y125780D01*
X312218Y125788D01*
X310559Y125788D01*
X309369Y126979D01*
X309369Y137663D01*
X310559Y138854D01*
X321243Y138854D01*
X322434Y137663D01*
X322434Y126979D01*
X321243Y125788D01*
X319584Y125788D01*
X319535Y125777D01*
X319484Y125775D01*
X319452Y125757D01*
X319416Y125749D01*
X319376Y125716D01*
X319332Y125692D01*
X319310Y125662D01*
X319282Y125639D01*
X319261Y125592D01*
X319232Y125550D01*
X319224Y125509D01*
X319211Y125481D01*
X319212Y125450D01*
X319204Y125408D01*
X319204Y110533D01*
X303614Y94943D01*
X272280Y94943D01*
X272206Y94925D01*
X272131Y94912D01*
X272121Y94906D01*
X272111Y94903D01*
X272083Y94880D01*
X272011Y94831D01*
X265923Y88743D01*
X265883Y88679D01*
X265839Y88617D01*
X265837Y88605D01*
X265832Y88596D01*
X265828Y88559D01*
X265812Y88474D01*
X265812Y87395D01*
X265826Y87334D01*
X265833Y87272D01*
X265846Y87251D01*
X265851Y87227D01*
X265891Y87178D01*
X265925Y87125D01*
X265946Y87112D01*
X265961Y87093D01*
X266019Y87067D01*
X266073Y87034D01*
X266097Y87032D01*
X266120Y87022D01*
X266182Y87025D01*
X266245Y87019D01*
X266271Y87028D01*
X266293Y87029D01*
X266326Y87047D01*
X266382Y87066D01*
X266778Y87295D01*
X267424Y87468D01*
X268748Y87468D01*
X268748Y74308D01*
X268759Y74259D01*
X268761Y74208D01*
X268779Y74176D01*
X268787Y74140D01*
X268820Y74100D01*
X268844Y74056D01*
X268874Y74034D01*
X268898Y74006D01*
X268944Y73985D01*
X268986Y73956D01*
X269028Y73948D01*
X269056Y73935D01*
X269086Y73936D01*
X269128Y73928D01*
X269510Y73928D01*
X269510Y73927D01*
X269128Y73927D01*
X269078Y73915D01*
X269027Y73913D01*
X268995Y73895D01*
X268959Y73887D01*
X268920Y73855D01*
X268875Y73830D01*
X268854Y73800D01*
X268826Y73777D01*
X268805Y73730D01*
X268775Y73689D01*
X268767Y73647D01*
X268755Y73619D01*
X268756Y73595D01*
X268755Y73593D01*
X268755Y73584D01*
X268748Y73546D01*
X268748Y60387D01*
X267424Y60387D01*
G37*
%LPD*%
G36*
X150940Y73940D02*
X150940Y73940D01*
X150991Y73942D01*
X151023Y73959D01*
X151059Y73968D01*
X151098Y74000D01*
X151143Y74025D01*
X151164Y74055D01*
X151192Y74078D01*
X151213Y74125D01*
X151243Y74166D01*
X151251Y74208D01*
X151263Y74236D01*
X151262Y74267D01*
X151270Y74308D01*
X151270Y87468D01*
X152594Y87468D01*
X153240Y87295D01*
X153636Y87066D01*
X153696Y87048D01*
X153754Y87022D01*
X153778Y87023D01*
X153802Y87016D01*
X153864Y87026D01*
X153927Y87029D01*
X153948Y87041D01*
X153973Y87045D01*
X154024Y87081D01*
X154079Y87112D01*
X154093Y87132D01*
X154113Y87146D01*
X154142Y87202D01*
X154179Y87253D01*
X154184Y87280D01*
X154194Y87299D01*
X154195Y87337D01*
X154206Y87396D01*
X154206Y95341D01*
X156252Y97388D01*
X160640Y101775D01*
X160653Y101795D01*
X160669Y101809D01*
X160683Y101841D01*
X160713Y101879D01*
X160719Y101902D01*
X160731Y101922D01*
X160735Y101956D01*
X160740Y101967D01*
X160739Y101991D01*
X160751Y102048D01*
X160746Y102074D01*
X160748Y102095D01*
X160735Y102130D01*
X160733Y102137D01*
X160733Y102140D01*
X160732Y102141D01*
X160722Y102190D01*
X160707Y102227D01*
X160707Y104737D01*
X161668Y107057D01*
X163443Y108832D01*
X165762Y109793D01*
X168273Y109793D01*
X170592Y108832D01*
X172368Y107057D01*
X173328Y104737D01*
X173328Y103917D01*
X173334Y103892D01*
X173332Y103866D01*
X173354Y103809D01*
X173368Y103748D01*
X173384Y103729D01*
X173394Y103704D01*
X173439Y103663D01*
X173478Y103615D01*
X173502Y103604D01*
X173521Y103587D01*
X173580Y103569D01*
X173636Y103544D01*
X173662Y103545D01*
X173687Y103538D01*
X173748Y103548D01*
X173809Y103551D01*
X173832Y103563D01*
X173857Y103567D01*
X173929Y103616D01*
X173962Y103633D01*
X173967Y103641D01*
X173978Y103648D01*
X193101Y122772D01*
X195147Y124818D01*
X213595Y124818D01*
X213669Y124836D01*
X213744Y124849D01*
X213754Y124855D01*
X213764Y124858D01*
X213793Y124881D01*
X213864Y124930D01*
X217354Y128420D01*
X217394Y128484D01*
X217438Y128547D01*
X217440Y128559D01*
X217446Y128567D01*
X217449Y128604D01*
X217466Y128689D01*
X217466Y134458D01*
X217448Y134532D01*
X217435Y134607D01*
X217428Y134617D01*
X217426Y134627D01*
X217402Y134656D01*
X217354Y134727D01*
X198743Y153338D01*
X196697Y155384D01*
X196697Y169283D01*
X196683Y169345D01*
X196676Y169408D01*
X196663Y169429D01*
X196658Y169452D01*
X196617Y169501D01*
X196583Y169555D01*
X196561Y169570D01*
X196548Y169586D01*
X196513Y169601D01*
X196463Y169635D01*
X196425Y169650D01*
X194650Y171425D01*
X193689Y173745D01*
X193689Y176255D01*
X194650Y178575D01*
X196425Y180350D01*
X198745Y181311D01*
X201255Y181311D01*
X203575Y180350D01*
X205350Y178575D01*
X206311Y176255D01*
X206311Y173745D01*
X205350Y171425D01*
X203575Y169650D01*
X203537Y169635D01*
X203486Y169598D01*
X203430Y169567D01*
X203416Y169548D01*
X203397Y169534D01*
X203367Y169477D01*
X203330Y169426D01*
X203325Y169399D01*
X203315Y169381D01*
X203314Y169343D01*
X203303Y169283D01*
X203303Y158277D01*
X203316Y158220D01*
X203316Y158216D01*
X203318Y158213D01*
X203320Y158203D01*
X203333Y158129D01*
X203340Y158118D01*
X203342Y158109D01*
X203366Y158080D01*
X203414Y158009D01*
X216816Y144606D01*
X216838Y144593D01*
X216855Y144573D01*
X216911Y144547D01*
X216964Y144515D01*
X216989Y144512D01*
X217013Y144502D01*
X217075Y144504D01*
X217136Y144498D01*
X217160Y144507D01*
X217186Y144508D01*
X217240Y144538D01*
X217298Y144560D01*
X217316Y144579D01*
X217338Y144591D01*
X217374Y144642D01*
X217416Y144687D01*
X217423Y144712D01*
X217438Y144733D01*
X217454Y144817D01*
X217465Y144853D01*
X217463Y144863D01*
X217466Y144875D01*
X217466Y153096D01*
X218656Y154286D01*
X219045Y154286D01*
X219095Y154298D01*
X219146Y154300D01*
X219178Y154317D01*
X219214Y154326D01*
X219253Y154358D01*
X219298Y154383D01*
X219319Y154413D01*
X219348Y154436D01*
X219369Y154483D01*
X219398Y154524D01*
X219406Y154566D01*
X219419Y154594D01*
X219417Y154625D01*
X219426Y154667D01*
X219426Y168950D01*
X219408Y169024D01*
X219395Y169099D01*
X219388Y169109D01*
X219386Y169119D01*
X219362Y169148D01*
X219316Y169216D01*
X219314Y169219D01*
X188367Y200166D01*
X188302Y200206D01*
X188240Y200250D01*
X188228Y200252D01*
X188220Y200258D01*
X188183Y200261D01*
X188098Y200278D01*
X139054Y200278D01*
X139004Y200266D01*
X138953Y200264D01*
X138921Y200247D01*
X138885Y200238D01*
X138846Y200206D01*
X138801Y200181D01*
X138780Y200151D01*
X138751Y200128D01*
X138731Y200081D01*
X138701Y200040D01*
X138693Y199998D01*
X138681Y199970D01*
X138682Y199939D01*
X138674Y199897D01*
X138674Y155645D01*
X138685Y155595D01*
X138687Y155544D01*
X138705Y155512D01*
X138713Y155476D01*
X138746Y155437D01*
X138770Y155392D01*
X138800Y155371D01*
X138823Y155342D01*
X138870Y155322D01*
X138912Y155292D01*
X138953Y155284D01*
X138981Y155272D01*
X139012Y155273D01*
X139054Y155265D01*
X139443Y155265D01*
X140634Y154074D01*
X140634Y152415D01*
X140645Y152365D01*
X140647Y152314D01*
X140665Y152282D01*
X140673Y152246D01*
X140706Y152207D01*
X140730Y152162D01*
X140760Y152141D01*
X140783Y152112D01*
X140830Y152092D01*
X140872Y152062D01*
X140913Y152054D01*
X140941Y152042D01*
X140972Y152043D01*
X141014Y152035D01*
X141787Y152035D01*
X143833Y149989D01*
X143833Y149988D01*
X146257Y147565D01*
X148303Y145519D01*
X148303Y114040D01*
X148312Y114002D01*
X148310Y113964D01*
X148331Y113919D01*
X148342Y113871D01*
X148367Y113842D01*
X148383Y113807D01*
X148421Y113776D01*
X148452Y113738D01*
X148488Y113722D01*
X148518Y113698D01*
X148566Y113687D01*
X148611Y113667D01*
X148649Y113668D01*
X148687Y113660D01*
X148746Y113672D01*
X148784Y113673D01*
X148788Y113676D01*
X151308Y113676D01*
X153627Y112715D01*
X155403Y110940D01*
X156363Y108620D01*
X156363Y106110D01*
X155403Y103790D01*
X153627Y102015D01*
X153590Y102000D01*
X153539Y101963D01*
X153483Y101932D01*
X153469Y101913D01*
X153449Y101899D01*
X153420Y101843D01*
X153383Y101791D01*
X153378Y101764D01*
X153368Y101746D01*
X153367Y101708D01*
X153355Y101648D01*
X153355Y99404D01*
X146559Y92607D01*
X146519Y92543D01*
X146475Y92481D01*
X146473Y92469D01*
X146467Y92460D01*
X146464Y92423D01*
X146447Y92339D01*
X146447Y87127D01*
X146453Y87102D01*
X146451Y87076D01*
X146473Y87018D01*
X146487Y86958D01*
X146503Y86938D01*
X146512Y86914D01*
X146558Y86872D01*
X146597Y86824D01*
X146620Y86814D01*
X146639Y86796D01*
X146699Y86779D01*
X146755Y86753D01*
X146781Y86754D01*
X146806Y86747D01*
X146866Y86758D01*
X146928Y86760D01*
X146951Y86772D01*
X146976Y86777D01*
X147048Y86825D01*
X147080Y86843D01*
X147086Y86851D01*
X147096Y86858D01*
X147199Y86960D01*
X147778Y87295D01*
X148424Y87468D01*
X149748Y87468D01*
X149748Y74308D01*
X149759Y74259D01*
X149761Y74208D01*
X149779Y74176D01*
X149787Y74140D01*
X149820Y74100D01*
X149844Y74056D01*
X149874Y74034D01*
X149898Y74006D01*
X149944Y73985D01*
X149986Y73956D01*
X150028Y73948D01*
X150056Y73935D01*
X150086Y73936D01*
X150128Y73928D01*
X150890Y73928D01*
X150940Y73940D01*
G37*
G36*
X122940Y73940D02*
X122940Y73940D01*
X122991Y73942D01*
X123023Y73959D01*
X123059Y73968D01*
X123098Y74000D01*
X123143Y74025D01*
X123164Y74055D01*
X123192Y74078D01*
X123213Y74125D01*
X123243Y74166D01*
X123251Y74208D01*
X123263Y74236D01*
X123262Y74267D01*
X123270Y74308D01*
X123270Y87468D01*
X124594Y87468D01*
X125240Y87295D01*
X125729Y87012D01*
X125789Y86994D01*
X125847Y86968D01*
X125871Y86969D01*
X125895Y86962D01*
X125957Y86973D01*
X126020Y86975D01*
X126042Y86987D01*
X126066Y86991D01*
X126117Y87028D01*
X126172Y87058D01*
X126186Y87078D01*
X126206Y87092D01*
X126236Y87148D01*
X126272Y87199D01*
X126277Y87227D01*
X126287Y87246D01*
X126288Y87283D01*
X126299Y87342D01*
X126299Y101451D01*
X128234Y103385D01*
X128557Y103385D01*
X128631Y103403D01*
X128706Y103416D01*
X128716Y103423D01*
X128726Y103425D01*
X128755Y103449D01*
X128826Y103497D01*
X141586Y116257D01*
X141626Y116321D01*
X141670Y116383D01*
X141672Y116395D01*
X141677Y116404D01*
X141681Y116441D01*
X141697Y116526D01*
X141697Y142626D01*
X141680Y142700D01*
X141667Y142774D01*
X141660Y142784D01*
X141658Y142794D01*
X141634Y142823D01*
X141586Y142894D01*
X141131Y143349D01*
X141088Y143376D01*
X141050Y143411D01*
X141015Y143421D01*
X140984Y143441D01*
X140933Y143446D01*
X140884Y143460D01*
X140848Y143454D01*
X140811Y143457D01*
X140764Y143439D01*
X140713Y143430D01*
X140678Y143407D01*
X140649Y143396D01*
X140629Y143373D01*
X140593Y143349D01*
X139443Y142199D01*
X128759Y142199D01*
X127568Y143390D01*
X127568Y154074D01*
X128759Y155265D01*
X129148Y155265D01*
X129198Y155276D01*
X129249Y155278D01*
X129281Y155296D01*
X129317Y155304D01*
X129356Y155337D01*
X129401Y155361D01*
X129422Y155391D01*
X129450Y155414D01*
X129471Y155461D01*
X129501Y155503D01*
X129509Y155544D01*
X129521Y155572D01*
X129521Y155581D01*
X129521Y155582D01*
X129520Y155605D01*
X129528Y155645D01*
X129528Y197143D01*
X129522Y197168D01*
X129525Y197194D01*
X129503Y197252D01*
X129489Y197312D01*
X129472Y197332D01*
X129463Y197356D01*
X129418Y197398D01*
X129378Y197446D01*
X129355Y197456D01*
X129336Y197474D01*
X129277Y197491D01*
X129220Y197517D01*
X129195Y197516D01*
X129170Y197523D01*
X129109Y197512D01*
X129047Y197510D01*
X129025Y197498D01*
X128999Y197493D01*
X128928Y197445D01*
X128895Y197427D01*
X128889Y197419D01*
X128879Y197412D01*
X98545Y167078D01*
X98505Y167014D01*
X98461Y166952D01*
X98459Y166939D01*
X98454Y166931D01*
X98450Y166894D01*
X98434Y166809D01*
X98434Y155077D01*
X98445Y155027D01*
X98447Y154976D01*
X98465Y154944D01*
X98473Y154908D01*
X98506Y154869D01*
X98530Y154824D01*
X98560Y154803D01*
X98583Y154775D01*
X98630Y154754D01*
X98672Y154724D01*
X98713Y154716D01*
X98741Y154704D01*
X98772Y154705D01*
X98814Y154697D01*
X99203Y154697D01*
X100394Y153506D01*
X100394Y142822D01*
X99203Y141631D01*
X88519Y141631D01*
X87328Y142822D01*
X87328Y143211D01*
X87317Y143261D01*
X87315Y143312D01*
X87297Y143344D01*
X87289Y143380D01*
X87256Y143419D01*
X87232Y143464D01*
X87202Y143485D01*
X87178Y143513D01*
X87132Y143534D01*
X87090Y143564D01*
X87048Y143572D01*
X87020Y143584D01*
X86990Y143583D01*
X86948Y143591D01*
X84337Y143591D01*
X84312Y143585D01*
X84286Y143588D01*
X84228Y143566D01*
X84168Y143552D01*
X84148Y143535D01*
X84124Y143526D01*
X84082Y143481D01*
X84034Y143441D01*
X84024Y143418D01*
X84006Y143399D01*
X83989Y143340D01*
X83964Y143283D01*
X83965Y143258D01*
X83957Y143233D01*
X83968Y143172D01*
X83970Y143110D01*
X83983Y143088D01*
X83987Y143062D01*
X84035Y142991D01*
X84053Y142958D01*
X84061Y142952D01*
X84068Y142942D01*
X85246Y141764D01*
X87288Y139722D01*
X87332Y139695D01*
X87369Y139660D01*
X87404Y139650D01*
X87435Y139631D01*
X87486Y139626D01*
X87536Y139611D01*
X87571Y139618D01*
X87608Y139614D01*
X87656Y139632D01*
X87706Y139641D01*
X87741Y139665D01*
X87770Y139676D01*
X87776Y139683D01*
X88380Y140032D01*
X89026Y140205D01*
X93100Y140205D01*
X93100Y133545D01*
X93111Y133495D01*
X93113Y133444D01*
X93131Y133412D01*
X93139Y133376D01*
X93172Y133337D01*
X93196Y133292D01*
X93226Y133271D01*
X93249Y133243D01*
X93296Y133222D01*
X93338Y133192D01*
X93380Y133184D01*
X93407Y133172D01*
X93438Y133173D01*
X93480Y133165D01*
X93862Y133165D01*
X93862Y133163D01*
X93480Y133163D01*
X93430Y133151D01*
X93379Y133149D01*
X93347Y133132D01*
X93311Y133124D01*
X93272Y133091D01*
X93227Y133067D01*
X93206Y133037D01*
X93178Y133013D01*
X93157Y132967D01*
X93127Y132925D01*
X93119Y132883D01*
X93107Y132855D01*
X93108Y132825D01*
X93100Y132783D01*
X93100Y126123D01*
X91652Y126123D01*
X91626Y126117D01*
X91601Y126120D01*
X91543Y126098D01*
X91483Y126084D01*
X91463Y126067D01*
X91439Y126058D01*
X91397Y126013D01*
X91349Y125973D01*
X91339Y125950D01*
X91321Y125931D01*
X91304Y125872D01*
X91278Y125815D01*
X91279Y125790D01*
X91272Y125765D01*
X91283Y125704D01*
X91285Y125642D01*
X91297Y125620D01*
X91302Y125594D01*
X91350Y125523D01*
X91368Y125490D01*
X91376Y125484D01*
X91383Y125474D01*
X96337Y120520D01*
X96401Y120480D01*
X96463Y120436D01*
X96475Y120434D01*
X96484Y120429D01*
X96521Y120425D01*
X96606Y120409D01*
X102147Y120409D01*
X104193Y118363D01*
X107267Y115289D01*
X107288Y115275D01*
X107305Y115255D01*
X107361Y115230D01*
X107414Y115197D01*
X107439Y115195D01*
X107463Y115184D01*
X107525Y115187D01*
X107586Y115181D01*
X107610Y115190D01*
X107636Y115191D01*
X107690Y115220D01*
X107748Y115242D01*
X107766Y115261D01*
X107788Y115274D01*
X107824Y115324D01*
X107866Y115370D01*
X107873Y115394D01*
X107888Y115415D01*
X107904Y115500D01*
X107915Y115536D01*
X107913Y115546D01*
X107916Y115558D01*
X107916Y116818D01*
X108876Y119137D01*
X110652Y120912D01*
X110866Y121001D01*
X110917Y121038D01*
X110973Y121068D01*
X110987Y121088D01*
X111007Y121102D01*
X111036Y121158D01*
X111073Y121210D01*
X111078Y121236D01*
X111088Y121255D01*
X111089Y121293D01*
X111100Y121352D01*
X111100Y126176D01*
X111089Y126226D01*
X111087Y126277D01*
X111069Y126309D01*
X111061Y126345D01*
X111029Y126384D01*
X111004Y126429D01*
X110974Y126450D01*
X110951Y126478D01*
X110904Y126499D01*
X110862Y126529D01*
X110821Y126537D01*
X110793Y126549D01*
X110762Y126548D01*
X110720Y126556D01*
X109061Y126556D01*
X107870Y127747D01*
X107870Y138431D01*
X109061Y139622D01*
X119745Y139622D01*
X120936Y138431D01*
X120936Y127747D01*
X119745Y126556D01*
X118086Y126556D01*
X118037Y126545D01*
X117986Y126543D01*
X117953Y126525D01*
X117917Y126517D01*
X117878Y126484D01*
X117833Y126460D01*
X117812Y126430D01*
X117784Y126407D01*
X117763Y126360D01*
X117734Y126318D01*
X117725Y126276D01*
X117713Y126249D01*
X117714Y126218D01*
X117706Y126176D01*
X117706Y121165D01*
X117723Y121091D01*
X117736Y121016D01*
X117743Y121006D01*
X117745Y120996D01*
X117769Y120967D01*
X117817Y120896D01*
X119576Y119137D01*
X120537Y116818D01*
X120537Y114307D01*
X119576Y111987D01*
X117801Y110212D01*
X115482Y109251D01*
X112971Y109251D01*
X112338Y109514D01*
X112300Y109520D01*
X112264Y109536D01*
X112215Y109534D01*
X112167Y109542D01*
X112130Y109531D01*
X112091Y109529D01*
X112048Y109506D01*
X112001Y109491D01*
X111973Y109465D01*
X111939Y109447D01*
X111911Y109406D01*
X111875Y109372D01*
X111862Y109336D01*
X111839Y109305D01*
X111828Y109245D01*
X111815Y109210D01*
X111817Y109189D01*
X111812Y109163D01*
X111812Y86773D01*
X111818Y86748D01*
X111815Y86722D01*
X111837Y86664D01*
X111851Y86604D01*
X111868Y86584D01*
X111877Y86560D01*
X111922Y86518D01*
X111961Y86470D01*
X111985Y86460D01*
X112004Y86442D01*
X112063Y86425D01*
X112120Y86400D01*
X112145Y86401D01*
X112170Y86393D01*
X112231Y86404D01*
X112293Y86406D01*
X112315Y86418D01*
X112341Y86423D01*
X112412Y86471D01*
X112445Y86489D01*
X112451Y86497D01*
X112461Y86504D01*
X112917Y86960D01*
X118101Y86960D01*
X118381Y86680D01*
X118424Y86653D01*
X118462Y86619D01*
X118497Y86608D01*
X118528Y86589D01*
X118579Y86584D01*
X118628Y86569D01*
X118664Y86576D01*
X118701Y86572D01*
X118748Y86590D01*
X118799Y86599D01*
X118834Y86623D01*
X118863Y86634D01*
X118883Y86656D01*
X118919Y86680D01*
X119199Y86960D01*
X119778Y87295D01*
X120424Y87468D01*
X121748Y87468D01*
X121748Y74308D01*
X121759Y74259D01*
X121761Y74208D01*
X121779Y74176D01*
X121787Y74140D01*
X121820Y74100D01*
X121844Y74056D01*
X121874Y74034D01*
X121898Y74006D01*
X121944Y73985D01*
X121986Y73956D01*
X122028Y73948D01*
X122056Y73935D01*
X122086Y73936D01*
X122128Y73928D01*
X122890Y73928D01*
X122940Y73940D01*
G37*
G36*
X104901Y90015D02*
X104901Y90015D01*
X104927Y90016D01*
X104981Y90045D01*
X105039Y90067D01*
X105056Y90086D01*
X105079Y90099D01*
X105114Y90149D01*
X105157Y90194D01*
X105164Y90219D01*
X105179Y90240D01*
X105195Y90325D01*
X105206Y90361D01*
X105204Y90370D01*
X105206Y90382D01*
X105206Y107850D01*
X105189Y107924D01*
X105176Y107999D01*
X105169Y108009D01*
X105167Y108019D01*
X105143Y108048D01*
X105095Y108119D01*
X99522Y113692D01*
X99457Y113732D01*
X99395Y113776D01*
X99383Y113778D01*
X99375Y113783D01*
X99338Y113787D01*
X99253Y113803D01*
X93712Y113803D01*
X82733Y124783D01*
X82732Y124783D01*
X80925Y126590D01*
X80882Y126617D01*
X80844Y126652D01*
X80809Y126662D01*
X80778Y126682D01*
X80727Y126686D01*
X80678Y126701D01*
X80642Y126695D01*
X80605Y126698D01*
X80558Y126680D01*
X80507Y126671D01*
X80472Y126647D01*
X80443Y126637D01*
X80423Y126614D01*
X80387Y126590D01*
X80332Y126535D01*
X79752Y126200D01*
X79106Y126027D01*
X75033Y126027D01*
X75033Y132687D01*
X75021Y132736D01*
X75019Y132787D01*
X75002Y132820D01*
X74993Y132855D01*
X74961Y132895D01*
X74936Y132940D01*
X74906Y132961D01*
X74883Y132989D01*
X74836Y133010D01*
X74795Y133039D01*
X74753Y133047D01*
X74725Y133060D01*
X74694Y133059D01*
X74652Y133067D01*
X73891Y133067D01*
X73841Y133055D01*
X73790Y133053D01*
X73758Y133036D01*
X73722Y133027D01*
X73682Y132995D01*
X73638Y132971D01*
X73617Y132941D01*
X73588Y132917D01*
X73567Y132871D01*
X73538Y132829D01*
X73530Y132787D01*
X73517Y132759D01*
X73518Y132728D01*
X73510Y132687D01*
X73510Y126027D01*
X69437Y126027D01*
X68791Y126200D01*
X68211Y126535D01*
X67893Y126853D01*
X67871Y126867D01*
X67855Y126887D01*
X67798Y126912D01*
X67746Y126945D01*
X67720Y126947D01*
X67697Y126958D01*
X67635Y126955D01*
X67573Y126961D01*
X67549Y126952D01*
X67523Y126951D01*
X67469Y126921D01*
X67411Y126900D01*
X67394Y126881D01*
X67371Y126868D01*
X67336Y126818D01*
X67294Y126772D01*
X67286Y126748D01*
X67271Y126727D01*
X67255Y126642D01*
X67244Y126606D01*
X67246Y126596D01*
X67244Y126584D01*
X67244Y122584D01*
X67261Y122510D01*
X67274Y122436D01*
X67281Y122426D01*
X67283Y122416D01*
X67307Y122387D01*
X67350Y122323D01*
X67352Y122320D01*
X67353Y122319D01*
X67355Y122316D01*
X71257Y118414D01*
X71321Y118374D01*
X71383Y118330D01*
X71395Y118328D01*
X71404Y118323D01*
X71441Y118319D01*
X71526Y118303D01*
X76368Y118303D01*
X104557Y90114D01*
X104579Y90100D01*
X104595Y90080D01*
X104652Y90055D01*
X104704Y90022D01*
X104730Y90020D01*
X104754Y90009D01*
X104815Y90012D01*
X104877Y90006D01*
X104901Y90015D01*
G37*
%LPC*%
G36*
X254779Y246922D02*
X254779Y246922D01*
X250951Y248507D01*
X248021Y251437D01*
X246436Y255265D01*
X246436Y259408D01*
X248021Y263236D01*
X250951Y266166D01*
X254779Y267751D01*
X258922Y267751D01*
X262750Y266166D01*
X265680Y263236D01*
X267265Y259408D01*
X267265Y255265D01*
X265680Y251437D01*
X262750Y248507D01*
X258922Y246922D01*
X254779Y246922D01*
G37*
%LPD*%
%LPC*%
G36*
X178579Y246922D02*
X178579Y246922D01*
X174751Y248507D01*
X171821Y251437D01*
X170236Y255265D01*
X170236Y259408D01*
X171821Y263236D01*
X174751Y266166D01*
X178579Y267751D01*
X182722Y267751D01*
X186550Y266166D01*
X189480Y263236D01*
X191065Y259408D01*
X191065Y255265D01*
X189480Y251437D01*
X186550Y248507D01*
X182722Y246922D01*
X178579Y246922D01*
G37*
%LPD*%
%LPC*%
G36*
X153179Y246922D02*
X153179Y246922D01*
X149351Y248507D01*
X146421Y251437D01*
X144836Y255265D01*
X144836Y259408D01*
X146421Y263236D01*
X149351Y266166D01*
X153179Y267751D01*
X157322Y267751D01*
X161150Y266166D01*
X164080Y263236D01*
X165665Y259408D01*
X165665Y255265D01*
X164080Y251437D01*
X161150Y248507D01*
X157322Y246922D01*
X153179Y246922D01*
G37*
%LPD*%
%LPC*%
G36*
X203979Y246922D02*
X203979Y246922D01*
X200151Y248507D01*
X197221Y251437D01*
X195636Y255265D01*
X195636Y259408D01*
X197221Y263236D01*
X200151Y266166D01*
X203979Y267751D01*
X208122Y267751D01*
X211950Y266166D01*
X214880Y263236D01*
X216465Y259408D01*
X216465Y255265D01*
X214880Y251437D01*
X211950Y248507D01*
X208122Y246922D01*
X203979Y246922D01*
G37*
%LPD*%
%LPC*%
G36*
X130161Y112145D02*
X130161Y112145D01*
X127842Y113105D01*
X126067Y114881D01*
X125106Y117200D01*
X125106Y119711D01*
X126067Y122030D01*
X127842Y123805D01*
X130161Y124766D01*
X130418Y124766D01*
X130468Y124778D01*
X130519Y124780D01*
X130551Y124797D01*
X130587Y124805D01*
X130626Y124838D01*
X130671Y124862D01*
X130692Y124892D01*
X130720Y124916D01*
X130741Y124962D01*
X130771Y125004D01*
X130779Y125046D01*
X130791Y125074D01*
X130790Y125104D01*
X130798Y125146D01*
X130798Y126819D01*
X130787Y126868D01*
X130785Y126920D01*
X130767Y126952D01*
X130759Y126988D01*
X130726Y127027D01*
X130702Y127072D01*
X130672Y127093D01*
X130648Y127121D01*
X130602Y127142D01*
X130560Y127171D01*
X130518Y127180D01*
X130490Y127192D01*
X130460Y127191D01*
X130418Y127199D01*
X128759Y127199D01*
X127568Y128390D01*
X127568Y139074D01*
X128759Y140265D01*
X139443Y140265D01*
X140634Y139074D01*
X140634Y128390D01*
X139443Y127199D01*
X137784Y127199D01*
X137734Y127187D01*
X137683Y127186D01*
X137651Y127168D01*
X137615Y127160D01*
X137576Y127127D01*
X137531Y127103D01*
X137510Y127073D01*
X137481Y127049D01*
X137461Y127003D01*
X137431Y126961D01*
X137423Y126919D01*
X137411Y126891D01*
X137412Y126861D01*
X137404Y126819D01*
X137404Y120568D01*
X137404Y120566D01*
X137404Y120564D01*
X137433Y120422D01*
X137727Y119711D01*
X137727Y117200D01*
X136767Y114881D01*
X134991Y113105D01*
X132672Y112145D01*
X130161Y112145D01*
G37*
%LPD*%
G36*
X136940Y73940D02*
X136940Y73940D01*
X136991Y73942D01*
X137023Y73959D01*
X137059Y73968D01*
X137098Y74000D01*
X137143Y74025D01*
X137164Y74055D01*
X137192Y74078D01*
X137213Y74125D01*
X137243Y74166D01*
X137251Y74208D01*
X137263Y74236D01*
X137262Y74267D01*
X137270Y74308D01*
X137270Y87468D01*
X138594Y87468D01*
X139240Y87295D01*
X139271Y87277D01*
X139332Y87258D01*
X139389Y87233D01*
X139414Y87234D01*
X139437Y87226D01*
X139499Y87237D01*
X139562Y87239D01*
X139584Y87251D01*
X139608Y87255D01*
X139659Y87292D01*
X139714Y87322D01*
X139729Y87342D01*
X139748Y87356D01*
X139778Y87412D01*
X139814Y87464D01*
X139819Y87491D01*
X139829Y87510D01*
X139830Y87547D01*
X139842Y87606D01*
X139842Y95232D01*
X146282Y101673D01*
X146309Y101716D01*
X146344Y101754D01*
X146355Y101789D01*
X146374Y101820D01*
X146379Y101871D01*
X146393Y101920D01*
X146387Y101956D01*
X146390Y101993D01*
X146372Y102040D01*
X146364Y102091D01*
X146340Y102126D01*
X146329Y102155D01*
X146306Y102175D01*
X146282Y102211D01*
X144703Y103790D01*
X143742Y106110D01*
X143742Y108153D01*
X143736Y108178D01*
X143739Y108204D01*
X143717Y108262D01*
X143703Y108322D01*
X143686Y108342D01*
X143677Y108366D01*
X143632Y108408D01*
X143592Y108456D01*
X143569Y108466D01*
X143550Y108484D01*
X143491Y108501D01*
X143434Y108527D01*
X143408Y108526D01*
X143384Y108533D01*
X143323Y108522D01*
X143261Y108520D01*
X143238Y108508D01*
X143213Y108503D01*
X143142Y108455D01*
X143109Y108437D01*
X143103Y108429D01*
X143093Y108422D01*
X133497Y98826D01*
X133016Y98345D01*
X132976Y98281D01*
X132933Y98219D01*
X132930Y98207D01*
X132925Y98198D01*
X132921Y98161D01*
X132905Y98077D01*
X132905Y87449D01*
X132919Y87388D01*
X132926Y87325D01*
X132939Y87305D01*
X132944Y87281D01*
X132984Y87232D01*
X133018Y87179D01*
X133039Y87166D01*
X133055Y87147D01*
X133112Y87121D01*
X133166Y87088D01*
X133190Y87086D01*
X133213Y87076D01*
X133276Y87078D01*
X133338Y87073D01*
X133364Y87082D01*
X133386Y87083D01*
X133419Y87100D01*
X133475Y87120D01*
X133778Y87295D01*
X134424Y87468D01*
X135748Y87468D01*
X135748Y74308D01*
X135759Y74259D01*
X135761Y74208D01*
X135779Y74176D01*
X135787Y74140D01*
X135820Y74100D01*
X135844Y74056D01*
X135874Y74034D01*
X135898Y74006D01*
X135944Y73985D01*
X135986Y73956D01*
X136028Y73948D01*
X136056Y73935D01*
X136086Y73936D01*
X136128Y73928D01*
X136890Y73928D01*
X136940Y73940D01*
G37*
%LPC*%
G36*
X105212Y258098D02*
X105212Y258098D01*
X105212Y268259D01*
X105310Y268259D01*
X107008Y267990D01*
X108643Y267459D01*
X110175Y266679D01*
X111566Y265668D01*
X112782Y264452D01*
X113792Y263061D01*
X114573Y261529D01*
X115104Y259894D01*
X115373Y258196D01*
X115373Y258098D01*
X105212Y258098D01*
G37*
%LPD*%
%LPC*%
G36*
X105212Y246414D02*
X105212Y246414D01*
X105212Y256575D01*
X115373Y256575D01*
X115373Y256477D01*
X115104Y254779D01*
X114573Y253144D01*
X113792Y251612D01*
X112782Y250221D01*
X111566Y249005D01*
X110175Y247995D01*
X108643Y247214D01*
X107008Y246683D01*
X105310Y246414D01*
X105212Y246414D01*
G37*
%LPD*%
%LPC*%
G36*
X93528Y258098D02*
X93528Y258098D01*
X93528Y258196D01*
X93797Y259894D01*
X94328Y261529D01*
X95109Y263061D01*
X96119Y264452D01*
X97335Y265668D01*
X98726Y266679D01*
X100258Y267459D01*
X101893Y267990D01*
X103591Y268259D01*
X103689Y268259D01*
X103689Y258098D01*
X93528Y258098D01*
G37*
%LPD*%
%LPC*%
G36*
X103591Y246414D02*
X103591Y246414D01*
X101893Y246683D01*
X100258Y247214D01*
X98726Y247995D01*
X97335Y249005D01*
X96119Y250221D01*
X95109Y251612D01*
X94328Y253144D01*
X93797Y254779D01*
X93528Y256477D01*
X93528Y256575D01*
X103689Y256575D01*
X103689Y246414D01*
X103591Y246414D01*
G37*
%LPD*%
%LPC*%
G36*
X270270Y74689D02*
X270270Y74689D01*
X270270Y87468D01*
X271594Y87468D01*
X272240Y87295D01*
X272819Y86961D01*
X272856Y86949D01*
X272890Y86929D01*
X272938Y86924D01*
X272985Y86910D01*
X273023Y86917D01*
X273062Y86913D01*
X273119Y86933D01*
X273156Y86939D01*
X273173Y86952D01*
X273199Y86961D01*
X273778Y87295D01*
X274424Y87468D01*
X275748Y87468D01*
X275748Y74689D01*
X270270Y74689D01*
G37*
%LPD*%
%LPC*%
G36*
X274424Y60387D02*
X274424Y60387D01*
X273778Y60560D01*
X273199Y60894D01*
X273162Y60906D01*
X273128Y60926D01*
X273080Y60930D01*
X273033Y60944D01*
X272995Y60938D01*
X272956Y60941D01*
X272899Y60922D01*
X272862Y60916D01*
X272845Y60903D01*
X272819Y60894D01*
X272240Y60560D01*
X271594Y60387D01*
X270270Y60387D01*
X270270Y73166D01*
X275748Y73166D01*
X275748Y60387D01*
X274424Y60387D01*
G37*
%LPD*%
%LPC*%
G36*
X93339Y27395D02*
X93339Y27395D01*
X90976Y29757D01*
X90976Y33098D01*
X93339Y35460D01*
X96679Y35460D01*
X99042Y33098D01*
X99042Y29757D01*
X96679Y27395D01*
X93339Y27395D01*
G37*
%LPD*%
%LPC*%
G36*
X253339Y27395D02*
X253339Y27395D01*
X250976Y29757D01*
X250976Y33098D01*
X253339Y35460D01*
X256679Y35460D01*
X259042Y33098D01*
X259042Y29757D01*
X256679Y27395D01*
X253339Y27395D01*
G37*
%LPD*%
%LPC*%
G36*
X277270Y74689D02*
X277270Y74689D01*
X277270Y87468D01*
X278594Y87468D01*
X279240Y87295D01*
X279819Y86960D01*
X280292Y86487D01*
X280627Y85908D01*
X280800Y85262D01*
X280800Y74689D01*
X277270Y74689D01*
G37*
%LPD*%
%LPC*%
G36*
X277270Y60387D02*
X277270Y60387D01*
X277270Y73166D01*
X280800Y73166D01*
X280800Y62593D01*
X280627Y61947D01*
X280292Y61367D01*
X279819Y60894D01*
X279240Y60560D01*
X278594Y60387D01*
X277270Y60387D01*
G37*
%LPD*%
%LPC*%
G36*
X69218Y74689D02*
X69218Y74689D01*
X69218Y85262D01*
X69391Y85908D01*
X69726Y86487D01*
X70199Y86960D01*
X70778Y87295D01*
X71424Y87468D01*
X72748Y87468D01*
X72748Y74689D01*
X69218Y74689D01*
G37*
%LPD*%
%LPC*%
G36*
X71424Y60387D02*
X71424Y60387D01*
X70778Y60560D01*
X70199Y60894D01*
X69726Y61367D01*
X69391Y61947D01*
X69218Y62593D01*
X69218Y73166D01*
X72748Y73166D01*
X72748Y60387D01*
X71424Y60387D01*
G37*
%LPD*%
%LPC*%
G36*
X265021Y148620D02*
X265021Y148620D01*
X265021Y154899D01*
X269095Y154899D01*
X269741Y154726D01*
X270320Y154392D01*
X270793Y153919D01*
X271128Y153339D01*
X271146Y153272D01*
X271301Y152693D01*
X271301Y148620D01*
X265021Y148620D01*
G37*
%LPD*%
%LPC*%
G36*
X294712Y148620D02*
X294712Y148620D01*
X294712Y154899D01*
X298785Y154899D01*
X299431Y154726D01*
X300011Y154392D01*
X300484Y153919D01*
X300818Y153339D01*
X300836Y153272D01*
X300991Y152693D01*
X300991Y148620D01*
X294712Y148620D01*
G37*
%LPD*%
%LPC*%
G36*
X316663Y148082D02*
X316663Y148082D01*
X316663Y154362D01*
X320736Y154362D01*
X321382Y154189D01*
X321962Y153854D01*
X322435Y153381D01*
X322769Y152802D01*
X322942Y152156D01*
X322942Y148082D01*
X316663Y148082D01*
G37*
%LPD*%
%LPC*%
G36*
X115164Y148850D02*
X115164Y148850D01*
X115164Y155130D01*
X119238Y155130D01*
X119884Y154957D01*
X120463Y154622D01*
X120936Y154149D01*
X121271Y153570D01*
X121444Y152924D01*
X121444Y148850D01*
X115164Y148850D01*
G37*
%LPD*%
%LPC*%
G36*
X94622Y133925D02*
X94622Y133925D01*
X94622Y140205D01*
X98695Y140205D01*
X99341Y140032D01*
X99921Y139697D01*
X100394Y139224D01*
X100728Y138645D01*
X100902Y137998D01*
X100902Y133925D01*
X94622Y133925D01*
G37*
%LPD*%
%LPC*%
G36*
X316663Y146560D02*
X316663Y146560D01*
X322942Y146560D01*
X322942Y142487D01*
X322769Y141840D01*
X322435Y141261D01*
X321962Y140788D01*
X321382Y140453D01*
X320736Y140280D01*
X316663Y140280D01*
X316663Y146560D01*
G37*
%LPD*%
%LPC*%
G36*
X286910Y148620D02*
X286910Y148620D01*
X286910Y152693D01*
X287083Y153339D01*
X287417Y153919D01*
X287890Y154392D01*
X288470Y154726D01*
X289116Y154899D01*
X293189Y154899D01*
X293189Y148620D01*
X286910Y148620D01*
G37*
%LPD*%
%LPC*%
G36*
X115164Y147328D02*
X115164Y147328D01*
X121444Y147328D01*
X121444Y143254D01*
X121271Y142608D01*
X120936Y142029D01*
X120463Y141556D01*
X119884Y141221D01*
X119238Y141048D01*
X115164Y141048D01*
X115164Y147328D01*
G37*
%LPD*%
%LPC*%
G36*
X308861Y148082D02*
X308861Y148082D01*
X308861Y152156D01*
X309034Y152802D01*
X309368Y153381D01*
X309841Y153854D01*
X310421Y154189D01*
X311067Y154362D01*
X315140Y154362D01*
X315140Y148082D01*
X308861Y148082D01*
G37*
%LPD*%
%LPC*%
G36*
X265021Y147097D02*
X265021Y147097D01*
X271301Y147097D01*
X271301Y143024D01*
X271128Y142378D01*
X270793Y141798D01*
X270320Y141325D01*
X269741Y140991D01*
X269095Y140818D01*
X265021Y140818D01*
X265021Y147097D01*
G37*
%LPD*%
%LPC*%
G36*
X294712Y147097D02*
X294712Y147097D01*
X300991Y147097D01*
X300991Y143024D01*
X300818Y142378D01*
X300484Y141798D01*
X300011Y141325D01*
X299431Y140991D01*
X298785Y140818D01*
X294712Y140818D01*
X294712Y147097D01*
G37*
%LPD*%
%LPC*%
G36*
X94622Y132403D02*
X94622Y132403D01*
X100902Y132403D01*
X100902Y128329D01*
X100728Y127683D01*
X100394Y127104D01*
X99921Y126631D01*
X99341Y126296D01*
X98695Y126123D01*
X94622Y126123D01*
X94622Y132403D01*
G37*
%LPD*%
%LPC*%
G36*
X107362Y148850D02*
X107362Y148850D01*
X107362Y152924D01*
X107536Y153570D01*
X107870Y154149D01*
X108343Y154622D01*
X108923Y154957D01*
X109569Y155130D01*
X113642Y155130D01*
X113642Y148850D01*
X107362Y148850D01*
G37*
%LPD*%
%LPC*%
G36*
X109569Y141048D02*
X109569Y141048D01*
X108923Y141221D01*
X108343Y141556D01*
X107870Y142029D01*
X107536Y142608D01*
X107477Y142827D01*
X107362Y143254D01*
X107362Y147328D01*
X113642Y147328D01*
X113642Y141048D01*
X109569Y141048D01*
G37*
%LPD*%
%LPC*%
G36*
X311067Y140280D02*
X311067Y140280D01*
X310421Y140453D01*
X309841Y140788D01*
X309368Y141261D01*
X309034Y141840D01*
X308861Y142487D01*
X308861Y146560D01*
X315140Y146560D01*
X315140Y140280D01*
X311067Y140280D01*
G37*
%LPD*%
%LPC*%
G36*
X289116Y140818D02*
X289116Y140818D01*
X288470Y140991D01*
X287890Y141325D01*
X287417Y141798D01*
X287083Y142378D01*
X286910Y143024D01*
X286910Y147097D01*
X293189Y147097D01*
X293189Y140818D01*
X289116Y140818D01*
G37*
%LPD*%
G36*
X74702Y133080D02*
X74702Y133080D01*
X74753Y133082D01*
X74785Y133100D01*
X74821Y133108D01*
X74861Y133141D01*
X74905Y133165D01*
X74926Y133195D01*
X74955Y133218D01*
X74976Y133265D01*
X75005Y133307D01*
X75013Y133348D01*
X75026Y133376D01*
X75025Y133407D01*
X75033Y133449D01*
X75033Y140108D01*
X76642Y140108D01*
X76667Y140114D01*
X76693Y140112D01*
X76751Y140134D01*
X76811Y140148D01*
X76831Y140164D01*
X76855Y140173D01*
X76897Y140219D01*
X76944Y140258D01*
X76955Y140282D01*
X76973Y140301D01*
X76990Y140360D01*
X77015Y140416D01*
X77014Y140442D01*
X77022Y140467D01*
X77011Y140528D01*
X77009Y140589D01*
X76996Y140612D01*
X76992Y140637D01*
X76944Y140709D01*
X76926Y140742D01*
X76918Y140747D01*
X76911Y140758D01*
X76245Y141424D01*
X76180Y141464D01*
X76118Y141507D01*
X76106Y141510D01*
X76098Y141515D01*
X76061Y141519D01*
X75976Y141535D01*
X68930Y141535D01*
X67893Y142572D01*
X67871Y142585D01*
X67855Y142605D01*
X67798Y142630D01*
X67746Y142663D01*
X67720Y142665D01*
X67697Y142676D01*
X67635Y142674D01*
X67573Y142680D01*
X67549Y142670D01*
X67523Y142669D01*
X67469Y142640D01*
X67411Y142618D01*
X67394Y142599D01*
X67371Y142587D01*
X67336Y142536D01*
X67294Y142491D01*
X67286Y142466D01*
X67271Y142445D01*
X67255Y142360D01*
X67244Y142325D01*
X67246Y142315D01*
X67244Y142303D01*
X67244Y139551D01*
X67250Y139526D01*
X67247Y139500D01*
X67269Y139443D01*
X67283Y139382D01*
X67300Y139362D01*
X67309Y139338D01*
X67354Y139296D01*
X67394Y139249D01*
X67417Y139238D01*
X67436Y139221D01*
X67495Y139203D01*
X67552Y139178D01*
X67577Y139179D01*
X67602Y139171D01*
X67663Y139182D01*
X67725Y139184D01*
X67747Y139197D01*
X67773Y139201D01*
X67844Y139249D01*
X67877Y139267D01*
X67883Y139275D01*
X67893Y139282D01*
X68211Y139601D01*
X68791Y139935D01*
X69437Y140108D01*
X73510Y140108D01*
X73510Y133449D01*
X73522Y133399D01*
X73524Y133348D01*
X73541Y133316D01*
X73550Y133280D01*
X73582Y133241D01*
X73607Y133196D01*
X73637Y133175D01*
X73660Y133146D01*
X73707Y133126D01*
X73748Y133096D01*
X73790Y133088D01*
X73818Y133076D01*
X73849Y133077D01*
X73891Y133069D01*
X74652Y133069D01*
X74702Y133080D01*
G37*
%LPC*%
G36*
X104450Y257336D02*
X104450Y257336D01*
X104450Y257338D01*
X104451Y257338D01*
X104451Y257336D01*
X104450Y257336D01*
G37*
%LPD*%
%LPC*%
G36*
X293950Y147858D02*
X293950Y147858D01*
X293950Y147859D01*
X293951Y147859D01*
X293951Y147858D01*
X293950Y147858D01*
G37*
%LPD*%
%LPC*%
G36*
X276508Y73927D02*
X276508Y73927D01*
X276508Y73928D01*
X276510Y73928D01*
X276510Y73927D01*
X276508Y73927D01*
G37*
%LPD*%
%LPC*%
G36*
X114402Y148088D02*
X114402Y148088D01*
X114402Y148090D01*
X114404Y148090D01*
X114404Y148088D01*
X114402Y148088D01*
G37*
%LPD*%
%LPC*%
G36*
X315901Y147320D02*
X315901Y147320D01*
X315901Y147322D01*
X315902Y147322D01*
X315902Y147320D01*
X315901Y147320D01*
G37*
%LPD*%
D10*
X73509Y73927D03*
X80509Y73927D03*
X87509Y73927D03*
X94509Y73927D03*
X101509Y73927D03*
X108509Y73927D03*
X115509Y73927D03*
X122509Y73927D03*
X129509Y73927D03*
X136509Y73927D03*
X143509Y73927D03*
X150509Y73927D03*
X157509Y73927D03*
X164509Y73927D03*
X171509Y73927D03*
X178509Y73927D03*
X185509Y73927D03*
X192509Y73927D03*
X199509Y73927D03*
X206509Y73927D03*
X213509Y73927D03*
X220509Y73927D03*
X227509Y73927D03*
X234509Y73927D03*
X241509Y73927D03*
X248509Y73927D03*
X255509Y73927D03*
X262509Y73927D03*
X269509Y73927D03*
X276509Y73927D03*
D11*
X114403Y148089D03*
X114403Y133089D03*
X134101Y133732D03*
X134101Y148732D03*
X223998Y132754D03*
X223998Y147754D03*
X244141Y132820D03*
X244141Y147820D03*
X264260Y147859D03*
X264260Y132859D03*
X33979Y147683D03*
X33979Y132683D03*
X54334Y148081D03*
X54334Y133081D03*
X315901Y147321D03*
X315901Y132321D03*
X93861Y133164D03*
X93861Y148164D03*
X293951Y147859D03*
X293951Y132859D03*
X74272Y133068D03*
X74272Y148068D03*
D12*
X104450Y257337D03*
X129850Y257337D03*
X155250Y257337D03*
X180650Y257337D03*
X206050Y257337D03*
X231450Y257337D03*
X256850Y257337D03*
D13*
X192509Y97509D02*
X192509Y73927D01*
X192509Y97509D02*
X200000Y105000D01*
D14*
X200000Y105000D03*
D13*
X199509Y89509D02*
X199509Y73927D01*
X199509Y89509D02*
X210000Y100000D01*
X230000Y100000D01*
D14*
X230000Y100000D03*
X98133Y105807D03*
D15*
X25904Y257164D03*
X324982Y257164D03*
D13*
X114403Y133089D02*
X114403Y115739D01*
X114226Y115562D01*
D14*
X114226Y115562D03*
X150053Y107365D03*
D13*
X150053Y100772D01*
X143145Y93864D01*
X143145Y74292D01*
X143509Y73927D01*
X134101Y121140D02*
X134101Y133732D01*
X134101Y121140D02*
X131417Y118455D01*
D14*
X131417Y118455D03*
X167018Y103482D03*
D13*
X157509Y93973D01*
X157509Y73927D01*
X164509Y73927D02*
X164509Y89509D01*
X196516Y121516D01*
X222754Y132754D02*
X223998Y132754D01*
X200000Y160000D02*
X200000Y175000D01*
D14*
X200000Y175000D03*
D13*
X196516Y121516D02*
X215121Y121516D01*
X222754Y129149D02*
X222754Y132754D01*
X222754Y129149D02*
X215121Y121516D01*
X223998Y132754D02*
X200000Y156752D01*
X200000Y175000D01*
X171509Y90043D02*
X171509Y73927D01*
X244141Y132820D02*
X252820Y132820D01*
X255000Y135000D01*
X255000Y195000D02*
X230000Y220000D01*
X230000Y255886D01*
X231450Y257337D01*
X255000Y195000D02*
X255000Y135000D01*
X236452Y116943D02*
X198409Y116943D01*
X236452Y116943D02*
X244141Y124633D01*
X244141Y132820D01*
X198409Y116943D02*
X171509Y90043D01*
D16*
X129850Y204850D02*
X129850Y257337D01*
X93861Y168861D02*
X93861Y148164D01*
X93861Y168861D02*
X129850Y204850D01*
X134101Y200600D02*
X134101Y148732D01*
X134101Y200600D02*
X129850Y204850D01*
X223998Y171002D02*
X223998Y147754D01*
X190150Y204850D02*
X129850Y204850D01*
X190150Y204850D02*
X223998Y171002D01*
X224065Y147820D02*
X223998Y147754D01*
X224065Y147820D02*
X244141Y147820D01*
D17*
X129850Y204850D03*
D14*
X129850Y204850D03*
D16*
X93861Y148164D02*
X74368Y148164D01*
X74272Y148068D01*
D13*
X83989Y138350D01*
X83989Y128197D01*
X134101Y148732D02*
X140419Y148732D01*
X145000Y144151D02*
X145000Y115000D01*
X130083Y100083D01*
X129602Y100083D01*
X129602Y74021D01*
X129509Y73927D01*
X145000Y144151D02*
X140419Y148732D01*
X108509Y109376D02*
X100779Y117106D01*
X95080Y117106D01*
X83989Y128197D01*
X108509Y109376D02*
X108509Y73927D01*
X248509Y73927D02*
X248584Y74002D01*
X264260Y114260D02*
X264260Y132859D01*
X264260Y114260D02*
X248584Y98584D01*
X248584Y74002D01*
X80509Y73927D02*
X80509Y89491D01*
X70000Y100000D01*
X45000Y100000D01*
X33979Y111021D02*
X33979Y132683D01*
X33979Y111021D02*
X45000Y100000D01*
X44516Y116920D02*
X44516Y141784D01*
X56864Y104572D02*
X71894Y104572D01*
X56864Y104572D02*
X44516Y116920D01*
X87542Y88924D02*
X87542Y73960D01*
X87542Y88924D02*
X71894Y104572D01*
X44516Y141784D02*
X38618Y147683D01*
X33979Y147683D01*
X87542Y73960D02*
X87509Y73927D01*
X59952Y109144D02*
X54099Y114996D01*
X59952Y109144D02*
X73788Y109144D01*
X94509Y88423D01*
X94509Y73927D01*
X54099Y114996D02*
X54099Y132847D01*
X54334Y133081D01*
X101509Y88491D02*
X101509Y73927D01*
X75000Y115000D02*
X70000Y115000D01*
X63941Y121059D01*
X60997Y148081D02*
X54334Y148081D01*
X75000Y115000D02*
X101509Y88491D01*
X63941Y121059D02*
X63941Y145137D01*
X60997Y148081D01*
X262509Y90000D02*
X262509Y73927D01*
X262509Y90000D02*
X270755Y98246D01*
X315901Y111901D02*
X315901Y132321D01*
X315901Y111901D02*
X302246Y98246D01*
X270755Y98246D01*
X255751Y74170D02*
X255509Y73927D01*
X255751Y74170D02*
X255751Y94659D01*
X264546Y103454D01*
X284454Y103454D01*
X294000Y113000D01*
X293951Y113049D01*
X293951Y132859D01*
D18*
X0Y0D02*
X350000Y0D01*
X350000Y280000D01*
X0Y280000D01*
X0Y0D01*
M02*
